<?xml version="1.0" encoding="utf-8"?>
<!-- Generator: Adobe Illustrator 25.2.3, SVG Export Plug-In . SVG Version: 6.00 Build 0)  -->
<svg version="1.1" id="Capa_1" xmlns="http://www.w3.org/2000/svg" xmlns:xlink="http://www.w3.org/1999/xlink" x="0px" y="0px"
	 viewBox="0 0 232 167" enable-background="new 0 0 232 167" xml:space="preserve">
<g>
	<g>
		<path fill="#FAE300" stroke="#040204" stroke-width="0.499" stroke-miterlimit="10" d="M69.28,17.19
			c0.58-1.16,1.28-2.41,2.13-3.71c0.51-0.76,1.01-1.47,1.52-2.12c0.24-0.4,0.72-1.08,1.56-1.63c0.57-0.38,1.12-0.57,1.52-0.67
			c0.29-0.12,0.43-0.44,0.34-0.7c-0.08-0.23-0.31-0.38-0.57-0.38H56.74C56.42,8,56.17,8.2,56.11,8.45
			c-0.08,0.32,0.19,0.71,0.63,0.76h0.49l4.47,8.16v5.99c0,0.19-0.02,0.56-0.22,0.96c-0.14,0.27-0.3,0.45-0.43,0.57h-1.52
			c-0.36,0.01-0.64,0.31-0.62,0.63c0.01,0.26,0.22,0.49,0.51,0.55H71.7c0.27-0.09,0.46-0.33,0.45-0.58c0-0.32-0.3-0.61-0.68-0.6
			h-1.48c-0.09-0.15-0.17-0.32-0.25-0.5c-0.4-0.93-0.48-1.8-0.46-2.47V17.19z M68.75,15.88c-0.7-1.93-1.39-3.85-2.08-5.78
			c0.13-0.24,0.38-0.61,0.83-0.79c0.78-0.32,1.86,0.06,2.56,1.01c0.04,0.63,0.03,1.42-0.13,2.32
			C69.68,14.06,69.17,15.16,68.75,15.88"/>
		<path fill="#FAE300" stroke="#040204" stroke-width="0.499" stroke-miterlimit="10" d="M155.67,15.41
			c-2.06-1.29-4.3-0.89-4.82-0.79c-0.7,0.13-1.27,0.34-1.64,0.51V8.3c0.01-0.39-0.21-0.69-0.46-0.73c-0.14-0.02-0.27,0.04-0.35,0.09
			c-0.23,0.12-0.46,0.23-0.69,0.35c-1.03,0.5-1.87,0.66-2.45,0.71c-1.49,0.13-2.52,0.3-3.85,0.32c-0.35,0-0.62,0.29-0.59,0.6
			c0.02,0.26,0.25,0.49,0.54,0.51c0.55-0.04,1.04,0.15,1.25,0.52c0.05,0.08,0.1,0.2,0.12,0.37V25.2c-0.22,0.02-0.56,0.01-0.91-0.18
			c-0.57-0.3-0.89-0.96-0.85-1.68v-6.58c-0.05-0.29-0.24-1.1-0.97-1.69c-0.87-0.71-2.16-0.82-3.31-0.27
			c-1.23,0.58-2.45,1.16-3.67,1.75c-0.02-0.7-0.27-1.09-0.42-1.27c-0.91-1.08-2.98-0.6-3.49-0.48c-0.53,0.12-0.93,0.3-1.39,0.5
			c-0.9,0.4-1.59,0.84-2.04,1.17v-1.67c0-0.14-0.04-0.22-0.08-0.27c-0.22-0.25-0.87-0.15-1.63,0.27c-0.81,0.44-1.51,0.6-1.98,0.66
			c-0.43,0.06-1.87,0.19-3.5,0.17c-0.21,0-0.64-0.01-0.79,0.24c-0.12,0.18-0.08,0.48,0.08,0.62c0.14,0.14,0.3,0.07,0.7,0.16
			c0.29,0.06,0.51,0.16,0.58,0.2c0.58,0.32,0.44,1.64,0.41,1.86v2.4c0,0,0,0.61,0,1.83c-0.02,0.08-0.11,0.42-0.45,0.64
			c-0.04,0.02-0.36,0.22-0.69,0.16c-0.53-0.1-0.92-0.76-0.92-1.12v-5.14c-0.11-0.41-0.37-1.12-1-1.73
			c-0.76-0.74-1.64-0.93-2.54-1.11c-0.64-0.13-1.09-0.16-3.42-0.12c-2.8,0.04-3.24,0.1-3.83,0.28c-0.76,0.24-2.1,0.65-2.46,1.75
			c-0.04,0.13-0.21,0.64,0.02,1.14c0.56,1.19,3.01,1.3,4.53,0.49c0.36-0.2,0.94-0.5,1.03-1.08c0.11-0.74-0.67-1.33-0.73-1.38
			c0.12-0.07,0.53-0.27,1.05-0.18c0.71,0.13,1.04,0.7,1.09,0.78v2.56c-0.49-0.01-6.04-0.09-7.65,2.14c0.01-0.15-0.02-0.25-0.06-0.32
			c-0.08-0.16-0.25-0.34-0.47-0.36c-0.31-0.04-0.51,0.26-1.15,0.86c-0.31,0.29-0.57,0.52-0.74,0.66c-0.17,0.14-0.48,0.37-0.94,0.48
			c-0.35,0.09-0.65,0.08-0.85,0.06c-0.38,0.01-1.27-0.03-2.12-0.61c-1.58-1.08-1.57-3.05-1.56-3.22c-0.04-1.56,0.77-2.78,1.81-3.02
			c0.56-0.13,1.08,0.06,1.41,0.23c-1.03,0.27-1.86,0.94-2,1.74c-0.2,1.16,1.04,2.71,3.09,2.8c0.17,0,1.46,0.02,2.28-0.99
			c0.52-0.64,0.71-1.52,0.52-2.22c-0.48-1.8-3.56-2.52-5.4-2.61c-3-0.14-7.33,1.18-8.34,4.49c-0.09,0.29-0.53,1.83,0.2,3.49
			c0.03,0.07,0.08,0.14,0.11,0.21c-0.03,0.12-0.06,0.24-0.1,0.35c-0.1,0.36-0.35,0.66-0.62,0.69c-0.39,0.05-0.92-0.4-0.92-1.12
			v-5.14c-0.11-0.41-0.37-1.12-1-1.73c-0.76-0.74-1.64-0.93-2.54-1.11c-0.64-0.13-1.1-0.16-3.42-0.12c-2.81,0.04-3.24,0.1-3.83,0.28
			c-0.76,0.24-2.11,0.65-2.46,1.75c-0.04,0.13-0.21,0.64,0.02,1.14c0.56,1.19,3.01,1.3,4.53,0.49c0.37-0.2,0.94-0.5,1.03-1.08
			c0.11-0.74-0.67-1.33-0.73-1.38c0.12-0.07,0.53-0.27,1.04-0.18c0.71,0.13,1.04,0.7,1.09,0.78v2.56c-0.5-0.01-6.14-0.09-7.7,2.2
			c-0.41,0.61-0.48,1.25-0.48,1.25c-0.14,1.3,0.78,2.48,1.66,3.09c1.05,0.73,2.17,0.71,2.83,0.7c2.06-0.03,3.57-1.07,4.2-1.58
			c0.11,0.22,0.37,0.67,0.91,1.04c0.59,0.4,1.19,0.45,1.43,0.45h2.37c0.37,0.01,0.69-0.05,0.95-0.13c1.21-0.36,1.94-1.4,2.36-2.26
			c1.45,1.76,4.14,2.74,7.17,2.4c0.53-0.09,1.16-0.24,1.85-0.51c1.15-0.46,2-1.07,2.56-1.54c0.74-0.69,1.21-1.34,1.5-1.81
			c-0.02,0.1-0.03,0.15-0.03,0.15c-0.14,1.3,0.78,2.48,1.66,3.09c1.05,0.73,2.17,0.71,2.83,0.7c2.06-0.03,3.57-1.07,4.2-1.58
			c0.1,0.22,0.37,0.67,0.9,1.04c0.6,0.4,1.2,0.45,1.44,0.45h2.37c0.29,0,0.47-0.02,0.64-0.05c0,0,0.16-0.03,0.32-0.08
			c0.52-0.16,1.05-0.55,1.18-0.65v0.87h24.26h0.11h0.85c0.16-0.11,0.41-0.26,0.74-0.4c0.88-0.36,1.69-0.29,2.64-0.19
			c0.42,0.04,1.02,0.12,1.72,0.31c0.7,0.23,2.87,0.86,5.26-0.06c0.43-0.16,4.28-1.71,4.48-5.22
			C158.65,18.27,157.18,16.36,155.67,15.41 M81.39,23.22c-0.01,0.08-0.12,0.68-0.58,0.85c-0.22,0.09-0.45,0.04-0.58-0.01
			c-0.88-0.35-1.39-2.9-0.23-3.78c0.15-0.12,0.58-0.39,1.39-0.3V23.22z M111.15,23.22c-0.01,0.08-0.12,0.68-0.57,0.85
			c-0.23,0.09-0.45,0.04-0.58-0.01c-0.88-0.35-1.4-2.9-0.23-3.78c0.15-0.12,0.58-0.39,1.38-0.3V23.22z M127.41,18.52
			c-0.04,1.18-0.03,2.94,0,5.34c-0.08,0.72-0.43,1.23-0.83,1.28c-0.17,0.02-0.31-0.05-0.37-0.08c-0.59-0.29-0.58-1.17-0.58-1.2
			v-6.23l1.26-0.68c0.05-0.02,0.12-0.04,0.2-0.01C127.47,17.06,127.42,18.13,127.41,18.52 M134.73,18.52
			c-0.04,1.18-0.04,2.94,0,5.34c-0.08,0.72-0.43,1.23-0.83,1.28c-0.17,0.02-0.32-0.05-0.37-0.08c-0.59-0.29-0.58-1.17-0.58-1.2
			v-6.23l1.26-0.68c0.05-0.02,0.13-0.04,0.2-0.01C134.78,17.06,134.74,18.13,134.73,18.52 M150.26,25.07
			c-0.63-0.06-1.26-0.81-1.16-1.74v-5.27c-0.04-1.39,0.7-2.34,1.26-2.36c0.57-0.01,1.39,0.93,1.38,2.36v5.27
			C151.81,24.4,150.96,25.14,150.26,25.07"/>
		<path fill="#FAE300" stroke="#040204" stroke-width="0.499" stroke-miterlimit="10" d="M164.33,12.77l5.38-1.71
			c0.12-0.08,0.69-0.45,0.87-1.21c0.21-0.85-0.26-1.51-0.34-1.6c-0.09-0.15-0.22-0.33-0.38-0.52c-0.19-0.21-0.39-0.37-0.55-0.48
			c-0.09-0.08-0.48-0.42-1.09-0.41c-0.67,0.01-1.08,0.44-1.15,0.51l-3.32,4.19c-0.33,0.33-0.35,0.81-0.11,1.06
			C163.89,12.87,164.31,12.78,164.33,12.77"/>
		<path fill="#FAE300" stroke="#040204" stroke-width="0.499" stroke-miterlimit="10" d="M175.87,25.23
			c-0.17-0.25-0.75,0.08-1.19-0.11c-0.28-0.12-0.55-0.54-0.55-1.78v-8.5c-0.03-0.06-0.14-0.23-0.36-0.31
			c-0.31-0.12-0.59,0.02-0.63,0.04c-0.72,0.34-1.76,0.74-3.06,0.96c-1.29,0.22-2.41,0.18-3.2,0.09c-0.22,0.02-0.4,0.18-0.44,0.38
			c-0.04,0.24,0.13,0.49,0.41,0.54c0.12,0.02,0.35,0.08,0.57,0.26c0.21,0.16,0.32,0.33,0.38,0.44v5.37
			c-0.09,0.13-0.41,0.56-1.01,0.71c-0.35,0.09-0.66,0.05-0.83,0.02v-8.2c-0.01-0.09-0.05-0.27-0.21-0.42
			c-0.23-0.22-0.64-0.25-1-0.05c-1.03,0.3-2.26,0.57-3.66,0.74c-1.1,0.13-2.11,0.17-2.99,0.15c-0.24,0.03-0.41,0.22-0.42,0.45
			c-0.01,0.24,0.17,0.46,0.42,0.49c0.14-0.01,0.58,0,0.98,0.3c0.58,0.44,0.6,1.12,0.6,1.21v2.48c0.01,1.44,0.03,2.87,0.04,4.31
			c0.29,0.78,0.71,1.14,0.97,1.3c1.54,0.99,4.02-0.37,5.23-1.03c0.89-0.49,1.54-0.99,1.94-1.32v2.31c3.7,0,6.4-0.01,7.11,0
			c0.13,0,0.5,0.01,0.74-0.24C175.86,25.66,175.97,25.38,175.87,25.23"/>
	</g>
	<g>
		<path fill="#E1281E" d="M85.4,7.66c0,2.2-1.04,3.29-3.11,3.29c-2.01,0-3.02-1.07-3.02-3.22V3.51h1.68v4.24
			c0,1.18,0.47,1.78,1.41,1.78c0.92,0,1.38-0.57,1.38-1.71v-4.3h1.67V7.66z"/>
		<path fill="#E1281E" d="M91.96,10.82h-1.63v-2.9c0-0.81-0.29-1.21-0.88-1.21c-0.28,0-0.51,0.11-0.7,0.32
			c-0.18,0.22-0.27,0.49-0.27,0.82v2.98h-1.63V5.6h1.63v0.82h0.02c0.39-0.64,0.96-0.95,1.7-0.95c1.17,0,1.76,0.72,1.76,2.15V10.82z"
			/>
		<path fill="#E1281E" d="M94.07,4.78c-0.28,0-0.5-0.08-0.68-0.24c-0.18-0.16-0.26-0.36-0.26-0.59c0-0.24,0.09-0.44,0.26-0.59
			c0.18-0.15,0.4-0.23,0.68-0.23c0.28,0,0.51,0.08,0.68,0.23c0.18,0.15,0.26,0.35,0.26,0.59c0,0.24-0.08,0.44-0.26,0.6
			C94.58,4.7,94.35,4.78,94.07,4.78 M94.88,10.82h-1.63V5.6h1.63V10.82z"/>
		<path fill="#E1281E" d="M101.29,5.6l-1.97,5.22h-1.86L95.59,5.6h1.75l0.92,3.22c0.1,0.37,0.16,0.67,0.18,0.93h0.02
			c0.02-0.24,0.09-0.54,0.19-0.9l0.94-3.25H101.29z"/>
		<path fill="#E1281E" d="M106.74,8.67h-3.45c0.06,0.76,0.54,1.14,1.45,1.14c0.58,0,1.09-0.14,1.53-0.41v1.16
			c-0.49,0.26-1.12,0.39-1.9,0.39c-0.85,0-1.52-0.23-1.99-0.7c-0.47-0.47-0.71-1.12-0.71-1.95c0-0.87,0.26-1.55,0.77-2.06
			c0.51-0.51,1.13-0.76,1.88-0.76c0.77,0,1.36,0.23,1.79,0.68c0.42,0.45,0.63,1.07,0.63,1.84V8.67z M105.22,7.68
			c0-0.75-0.31-1.12-0.91-1.12c-0.27,0-0.49,0.11-0.68,0.32c-0.19,0.21-0.31,0.48-0.35,0.8H105.22z"/>
		<path fill="#E1281E" d="M111.15,7.05c-0.19-0.1-0.42-0.16-0.68-0.16c-0.35,0-0.63,0.13-0.83,0.39c-0.2,0.26-0.3,0.61-0.3,1.05
			v2.49h-1.63V5.6h1.63v0.97h0.02c0.26-0.71,0.73-1.06,1.4-1.06c0.17,0,0.3,0.02,0.4,0.06V7.05z"/>
		<path fill="#E1281E" d="M111.57,10.69V9.38c0.27,0.16,0.54,0.28,0.8,0.36c0.27,0.08,0.52,0.12,0.76,0.12
			c0.29,0,0.52-0.04,0.69-0.12c0.17-0.08,0.25-0.2,0.25-0.36c0-0.1-0.03-0.19-0.11-0.25c-0.08-0.07-0.17-0.13-0.29-0.18
			c-0.12-0.05-0.25-0.1-0.39-0.14c-0.14-0.04-0.28-0.09-0.41-0.14c-0.21-0.08-0.4-0.16-0.56-0.25c-0.16-0.09-0.29-0.19-0.4-0.31
			c-0.11-0.12-0.19-0.26-0.25-0.42c-0.06-0.15-0.08-0.34-0.08-0.55c0-0.29,0.06-0.54,0.19-0.75c0.13-0.21,0.3-0.38,0.52-0.52
			c0.22-0.14,0.46-0.23,0.74-0.3c0.27-0.06,0.57-0.1,0.87-0.1c0.23,0,0.47,0.02,0.71,0.06c0.24,0.04,0.47,0.09,0.71,0.16v1.24
			c-0.21-0.12-0.43-0.21-0.66-0.27c-0.23-0.06-0.47-0.09-0.69-0.09c-0.11,0-0.21,0.01-0.3,0.03c-0.09,0.02-0.18,0.05-0.25,0.08
			c-0.07,0.04-0.13,0.08-0.17,0.14c-0.04,0.05-0.06,0.12-0.06,0.19c0,0.1,0.03,0.18,0.1,0.25c0.06,0.07,0.14,0.13,0.24,0.17
			c0.1,0.05,0.21,0.1,0.34,0.14c0.12,0.04,0.24,0.08,0.36,0.12c0.22,0.08,0.42,0.16,0.59,0.25c0.18,0.09,0.33,0.19,0.45,0.31
			c0.12,0.12,0.22,0.26,0.29,0.42c0.07,0.16,0.1,0.35,0.1,0.57c0,0.31-0.07,0.57-0.2,0.79c-0.14,0.22-0.32,0.4-0.54,0.53
			c-0.22,0.14-0.49,0.24-0.78,0.3c-0.3,0.06-0.6,0.09-0.92,0.09C112.6,10.95,112.06,10.86,111.57,10.69"/>
		<path fill="#E1281E" d="M117.39,4.78c-0.27,0-0.5-0.08-0.68-0.24c-0.17-0.16-0.26-0.36-0.26-0.59c0-0.24,0.09-0.44,0.26-0.59
			c0.18-0.15,0.4-0.23,0.68-0.23c0.28,0,0.51,0.08,0.68,0.23c0.18,0.15,0.26,0.35,0.26,0.59c0,0.24-0.08,0.44-0.26,0.6
			C117.9,4.7,117.67,4.78,117.39,4.78 M118.2,10.82h-1.63V5.6h1.63V10.82z"/>
		<path fill="#E1281E" d="M124.75,10.82h-1.63v-0.72h-0.02c-0.37,0.57-0.92,0.85-1.64,0.85c-0.66,0-1.19-0.23-1.6-0.69
			c-0.4-0.46-0.61-1.1-0.61-1.93c0-0.86,0.22-1.56,0.67-2.08c0.44-0.52,1.03-0.78,1.75-0.78c0.68,0,1.15,0.24,1.43,0.73h0.02V3.09
			h1.63V10.82z M123.15,8.29V7.89c0-0.34-0.1-0.62-0.3-0.85c-0.2-0.22-0.46-0.33-0.78-0.33c-0.36,0-0.64,0.14-0.85,0.42
			c-0.2,0.28-0.3,0.67-0.3,1.16c0,0.46,0.1,0.81,0.3,1.06c0.2,0.25,0.47,0.37,0.82,0.37c0.33,0,0.6-0.13,0.81-0.39
			C123.04,9.06,123.15,8.72,123.15,8.29"/>
		<path fill="#E1281E" d="M130.52,10.82h-1.54v-0.75h-0.02c-0.35,0.58-0.88,0.88-1.58,0.88c-0.51,0-0.92-0.14-1.21-0.43
			c-0.29-0.29-0.44-0.67-0.44-1.15c0-1.01,0.61-1.6,1.82-1.75l1.44-0.19c0-0.57-0.31-0.86-0.94-0.86c-0.63,0-1.23,0.18-1.8,0.56
			V5.91c0.23-0.12,0.54-0.22,0.93-0.31c0.39-0.09,0.75-0.14,1.08-0.14c1.51,0,2.26,0.74,2.26,2.23V10.82z M128.99,8.7V8.35
			l-0.96,0.12c-0.53,0.07-0.79,0.3-0.79,0.71c0,0.18,0.06,0.33,0.19,0.45c0.13,0.12,0.3,0.18,0.52,0.18c0.31,0,0.56-0.1,0.75-0.31
			C128.89,9.29,128.99,9.02,128.99,8.7"/>
		<path fill="#E1281E" d="M136.99,10.82h-1.64v-0.72h-0.02c-0.37,0.57-0.92,0.85-1.64,0.85c-0.66,0-1.19-0.23-1.6-0.69
			c-0.4-0.46-0.6-1.1-0.6-1.93c0-0.86,0.22-1.56,0.67-2.08c0.44-0.52,1.02-0.78,1.75-0.78c0.68,0,1.16,0.24,1.42,0.73h0.02V3.09
			h1.64V10.82z M135.39,8.29V7.89c0-0.34-0.1-0.62-0.3-0.85c-0.2-0.22-0.46-0.33-0.78-0.33c-0.36,0-0.64,0.14-0.85,0.42
			c-0.2,0.28-0.3,0.67-0.3,1.16c0,0.46,0.1,0.81,0.29,1.06c0.2,0.25,0.47,0.37,0.81,0.37c0.33,0,0.6-0.13,0.81-0.39
			C135.28,9.06,135.39,8.72,135.39,8.29"/>
	</g>
	<g>
		<path fill="#E1281E" d="M145.71,134.7c-11.91,7.23-23.45,7.37-29.7,7.37c-6.25,0-17.8-0.15-29.71-7.37
			c-9.03-5.48-14.2-12.55-16.74-16.65c-3.81,1.7-7.62,3.4-11.43,5.1c3.29,5.33,10.99,16.11,25.19,23.57
			c14.01,7.36,26.78,7.51,32.69,7.51c5.91,0,18.68-0.15,32.69-7.51c14.2-7.46,21.9-18.24,25.19-23.57c-3.81-1.7-7.62-3.4-11.43-5.1
			C159.91,122.14,154.73,129.22,145.71,134.7"/>
		<g>
			<g>
				<path fill="#E1281E" d="M178.6,97.57l-7.98,10.54l-5.28-11.05c0.04,2.99-0.28,7.87-2.47,13.38c-1.88,4.73-4.44,8.14-6.31,10.26
					l5.86-3.74c3.42,1.55,6.85,3.1,10.27,4.65c1.56-2.89,3.34-6.88,4.54-11.85C178.38,104.97,178.64,100.77,178.6,97.57"/>
				<polygon fill="#E1281E" points="157.43,121.21 158.68,121.92 161.37,118.31 				"/>
			</g>
			<g>
				<path fill="#E1281E" d="M69.59,116.96l5.85,3.74c-1.87-2.12-4.43-5.53-6.31-10.26c-2.19-5.51-2.51-10.39-2.47-13.38l-5.28,11.05
					L53.4,97.57c-0.04,3.2,0.22,7.4,1.38,12.19c1.2,4.97,2.98,8.96,4.53,11.85C62.74,120.06,66.16,118.51,69.59,116.96"/>
				<polygon fill="#E1281E" points="74.57,121.21 70.64,118.31 73.32,121.92 				"/>
			</g>
		</g>
	</g>
	<g>
		<path fill="#FFFFFF" d="M72.85,128.85L72.71,129c-0.27-0.12-0.54-0.15-0.81-0.1c-0.27,0.05-0.48,0.17-0.65,0.33
			c-0.03,0.04-0.05,0.07-0.06,0.1c-0.01,0.02,0,0.03,0.01,0.04c0.01,0.01,0.03,0.02,0.06,0.02c0.1,0.02,0.2,0.07,0.3,0.16
			c0.11,0.1,0.16,0.24,0.16,0.41c0,0.17-0.06,0.31-0.18,0.44c-0.13,0.13-0.29,0.2-0.48,0.21c-0.19,0.01-0.36-0.06-0.5-0.19
			c-0.16-0.15-0.24-0.35-0.22-0.59c0.01-0.25,0.13-0.48,0.35-0.7c0.26-0.27,0.56-0.43,0.93-0.48
			C71.97,128.58,72.39,128.65,72.85,128.85z M74.23,130.15l-0.14,0.15c-0.27-0.12-0.54-0.15-0.81-0.1
			c-0.27,0.05-0.49,0.17-0.65,0.34c-0.03,0.04-0.05,0.07-0.06,0.09c0,0.02,0,0.03,0.01,0.05c0.01,0.01,0.03,0.01,0.06,0.02
			c0.1,0.01,0.2,0.06,0.3,0.15c0.11,0.1,0.16,0.24,0.16,0.41c0,0.17-0.06,0.31-0.19,0.44c-0.13,0.13-0.29,0.2-0.48,0.21
			c-0.19,0.01-0.36-0.06-0.5-0.18c-0.16-0.15-0.23-0.35-0.22-0.6c0.01-0.24,0.13-0.48,0.35-0.7c0.25-0.26,0.56-0.42,0.92-0.48
			C73.35,129.89,73.77,129.96,74.23,130.15z"/>
		<path fill="#FFFFFF" d="M74.48,135.66L73,134.47l-0.52,0.27c-0.17,0.09-0.29,0.18-0.36,0.27c-0.1,0.12-0.13,0.25-0.08,0.38
			c0.03,0.08,0.14,0.21,0.35,0.4l-0.1,0.12l-1.39-1.12l0.1-0.12c0.17,0.1,0.34,0.14,0.53,0.11c0.18-0.02,0.47-0.14,0.89-0.35
			l4.3-2.18l0.06,0.05l-1.38,4.69c-0.13,0.45-0.18,0.75-0.16,0.91c0.02,0.12,0.08,0.24,0.2,0.35l-0.1,0.12l-2.02-1.63l0.1-0.12
			l0.08,0.07c0.16,0.13,0.29,0.2,0.4,0.21c0.08,0,0.14-0.03,0.19-0.09c0.03-0.03,0.05-0.08,0.08-0.13c0.01-0.02,0.04-0.13,0.1-0.31
			L74.48,135.66z M74.56,135.35l0.59-1.96l-1.85,0.94L74.56,135.35z"/>
		<path fill="#FFFFFF" d="M78.93,137.79l-0.86,1.25c-0.17,0.25-0.26,0.41-0.27,0.5c-0.02,0.08,0,0.17,0.05,0.26
			c0.05,0.09,0.18,0.2,0.38,0.34l-0.09,0.12l-2.27-1.52l0.08-0.12c0.21,0.14,0.36,0.21,0.46,0.22c0.1,0.01,0.19-0.01,0.26-0.05
			c0.08-0.04,0.19-0.19,0.37-0.43l2.03-2.94c0.17-0.25,0.26-0.41,0.27-0.49c0.01-0.08,0-0.17-0.05-0.26
			c-0.05-0.09-0.18-0.2-0.38-0.34l0.09-0.12l1.94,1.31c0.64,0.43,1.02,0.86,1.13,1.27c0.12,0.42,0.06,0.8-0.18,1.15
			c-0.2,0.3-0.47,0.49-0.79,0.58c-0.32,0.09-0.67,0.06-1.04-0.08C79.81,138.35,79.43,138.14,78.93,137.79z M80.46,135.58l-1.35,1.96
			c0.07,0.06,0.12,0.09,0.16,0.12c0.26,0.18,0.53,0.24,0.79,0.18c0.26-0.06,0.5-0.27,0.74-0.61c0.23-0.34,0.33-0.63,0.29-0.88
			c-0.04-0.25-0.2-0.48-0.49-0.67L80.46,135.58z"/>
		<path fill="#FFFFFF" d="M83.23,140.46l-0.75,1.34c-0.15,0.26-0.23,0.43-0.23,0.52c-0.01,0.09,0.02,0.17,0.07,0.25
			c0.06,0.08,0.19,0.18,0.41,0.3l-0.07,0.13l-2.41-1.33l0.07-0.13c0.22,0.12,0.37,0.18,0.47,0.18c0.1,0,0.19-0.02,0.25-0.07
			c0.07-0.05,0.18-0.2,0.32-0.46l1.76-3.1c0.15-0.26,0.23-0.43,0.23-0.52c0.01-0.08-0.02-0.17-0.08-0.25
			c-0.06-0.09-0.19-0.18-0.4-0.3l0.07-0.13l2.19,1.21c0.57,0.31,0.96,0.58,1.18,0.81c0.22,0.22,0.35,0.49,0.39,0.8
			c0.05,0.31-0.01,0.6-0.17,0.9c-0.2,0.35-0.49,0.58-0.87,0.67c-0.24,0.06-0.53,0.05-0.85-0.04l0.21,2.24
			c0.03,0.29,0.07,0.48,0.1,0.57c0.06,0.12,0.14,0.22,0.26,0.3l-0.07,0.13l-1.49-0.82l-0.28-3.01L83.23,140.46z M84.56,138.11
			l-1.19,2.1l0.2,0.11c0.32,0.18,0.58,0.28,0.78,0.31c0.19,0.03,0.38-0.01,0.56-0.12c0.18-0.11,0.34-0.29,0.48-0.54
			c0.21-0.36,0.28-0.68,0.21-0.95c-0.07-0.27-0.29-0.5-0.66-0.71L84.56,138.11z"/>
		<path fill="#FFFFFF" d="M89.73,140.74l-0.91,2.04l0.1,0.04c0.31,0.14,0.58,0.14,0.82-0.01c0.23-0.14,0.45-0.39,0.66-0.77
			l0.14,0.06l-1.17,2.63l-0.14-0.06c0.1-0.3,0.14-0.56,0.13-0.78c-0.01-0.22-0.07-0.39-0.16-0.51c-0.1-0.12-0.26-0.23-0.5-0.33
			l-0.63,1.41c-0.13,0.28-0.19,0.45-0.19,0.52c-0.01,0.07,0.01,0.14,0.06,0.21c0.04,0.07,0.14,0.13,0.28,0.19l0.29,0.13
			c0.46,0.2,0.88,0.25,1.26,0.16c0.38-0.1,0.72-0.34,1.04-0.73l0.14,0.06L90,146.5l-4.26-1.86l0.06-0.14l0.16,0.07
			c0.15,0.06,0.27,0.09,0.38,0.07c0.08-0.01,0.15-0.04,0.22-0.11c0.06-0.05,0.14-0.2,0.25-0.45l1.47-3.3
			c0.1-0.23,0.16-0.37,0.17-0.43c0.02-0.1,0-0.18-0.05-0.26c-0.06-0.11-0.17-0.2-0.33-0.27l-0.16-0.07l0.06-0.14l4.13,1.8
			l-0.66,1.48l-0.14-0.06c0.09-0.39,0.11-0.7,0.05-0.91c-0.06-0.21-0.19-0.41-0.39-0.58c-0.11-0.1-0.36-0.24-0.73-0.4L89.73,140.74z
			"/>
		<path fill="#FFFFFF" d="M94.59,142.32l1.43,4.06l0.75-2.24c0.1-0.31,0.13-0.54,0.08-0.68c-0.07-0.19-0.25-0.33-0.54-0.41
			l0.05-0.14l1.69,0.56l-0.05,0.14c-0.22-0.04-0.38-0.05-0.47-0.03c-0.09,0.02-0.17,0.07-0.25,0.16c-0.07,0.09-0.15,0.25-0.24,0.5
			l-1.46,4.33l-0.13-0.04l-1.99-5.46l-1.12,3.3c-0.1,0.3-0.1,0.52,0,0.67c0.1,0.15,0.24,0.25,0.41,0.31l0.12,0.04l-0.05,0.14
			l-1.82-0.6l0.05-0.14c0.29,0.09,0.5,0.1,0.65,0.02c0.15-0.08,0.27-0.26,0.36-0.53l1.24-3.67l-0.06-0.17
			c-0.06-0.18-0.13-0.3-0.2-0.37c-0.07-0.07-0.18-0.13-0.33-0.19l0.05-0.14L94.59,142.32z"/>
		<path fill="#FFFFFF" d="M96.96,148.85L97,148.7l0.17,0.04c0.15,0.03,0.27,0.04,0.37,0.01c0.09-0.03,0.17-0.08,0.23-0.15
			c0.04-0.05,0.09-0.21,0.15-0.49l0.82-3.51c0.06-0.27,0.09-0.45,0.08-0.52c-0.01-0.07-0.05-0.14-0.13-0.22
			c-0.07-0.07-0.19-0.13-0.34-0.16l-0.17-0.04l0.04-0.15l2.35,0.54c0.63,0.14,1.11,0.34,1.45,0.61c0.42,0.32,0.7,0.72,0.84,1.21
			c0.14,0.49,0.15,1,0.02,1.54c-0.09,0.38-0.23,0.71-0.42,1c-0.19,0.29-0.41,0.52-0.64,0.68c-0.23,0.16-0.49,0.28-0.77,0.35
			c-0.27,0.07-0.6,0.09-0.97,0.08c-0.17-0.01-0.42-0.05-0.76-0.12L96.96,148.85z M100.14,144.27l-0.97,4.17
			c-0.05,0.22-0.07,0.36-0.06,0.41c0.01,0.05,0.04,0.1,0.08,0.14c0.06,0.06,0.16,0.1,0.29,0.13c0.43,0.1,0.79,0.02,1.09-0.22
			c0.41-0.33,0.71-0.93,0.91-1.78c0.16-0.68,0.18-1.26,0.07-1.72c-0.1-0.36-0.26-0.62-0.5-0.8
			C100.87,144.48,100.57,144.37,100.14,144.27z"/>
		<path fill="#FFFFFF" d="M105.86,145.38l-0.32,2.21l0.11,0.02c0.34,0.05,0.6-0.03,0.78-0.22c0.18-0.2,0.32-0.5,0.43-0.92l0.15,0.02
			l-0.41,2.84l-0.15-0.02c0.01-0.32-0.02-0.58-0.09-0.79c-0.07-0.21-0.17-0.36-0.29-0.45c-0.12-0.09-0.31-0.15-0.57-0.18l-0.22,1.53
			c-0.04,0.3-0.06,0.49-0.04,0.56c0.02,0.07,0.05,0.13,0.11,0.18c0.07,0.05,0.17,0.09,0.32,0.11l0.32,0.05
			c0.5,0.07,0.92,0.01,1.25-0.19c0.33-0.19,0.6-0.52,0.8-0.98l0.15,0.02l-0.49,1.69l-4.61-0.64l0.02-0.15l0.18,0.02
			c0.15,0.02,0.28,0.01,0.39-0.03c0.07-0.03,0.13-0.08,0.18-0.17c0.04-0.06,0.08-0.23,0.12-0.5l0.51-3.57
			c0.03-0.25,0.05-0.4,0.04-0.46c-0.01-0.1-0.05-0.17-0.12-0.23c-0.09-0.09-0.22-0.15-0.4-0.17l-0.18-0.02l0.02-0.15l4.47,0.62
			l-0.23,1.6l-0.15-0.02c-0.02-0.4-0.09-0.7-0.2-0.89c-0.11-0.19-0.29-0.34-0.53-0.45c-0.14-0.07-0.41-0.13-0.81-0.19L105.86,145.38
			z"/>
		<path fill="#FFFFFF" d="M110.95,148.6l-0.09,1.53c-0.01,0.3-0.01,0.49,0.02,0.57c0.03,0.08,0.09,0.14,0.18,0.19
			c0.09,0.05,0.25,0.08,0.5,0.1l-0.01,0.15l-2.75-0.16l0.01-0.15c0.25,0.01,0.41,0,0.51-0.04c0.09-0.04,0.16-0.1,0.2-0.17
			c0.04-0.07,0.07-0.26,0.09-0.56l0.21-3.55c0.02-0.3,0.01-0.49-0.02-0.56c-0.03-0.07-0.09-0.14-0.18-0.19
			c-0.09-0.05-0.25-0.09-0.5-0.1l0.01-0.15l2.5,0.14c0.65,0.04,1.12,0.11,1.42,0.22c0.29,0.11,0.53,0.29,0.71,0.55
			c0.18,0.26,0.26,0.55,0.24,0.88c-0.02,0.41-0.19,0.73-0.49,0.98c-0.19,0.16-0.45,0.27-0.79,0.33l1.18,1.92
			c0.16,0.25,0.27,0.41,0.34,0.47c0.1,0.09,0.23,0.14,0.37,0.16l-0.01,0.15l-1.69-0.1l-1.59-2.59L110.95,148.6z M111.11,145.92
			l-0.14,2.4l0.23,0.01c0.37,0.02,0.65,0,0.83-0.06c0.19-0.06,0.34-0.18,0.45-0.35c0.11-0.17,0.18-0.4,0.2-0.69
			c0.03-0.42-0.05-0.73-0.23-0.94c-0.18-0.21-0.48-0.33-0.91-0.35L111.11,145.92z"/>
		<path fill="#FFFFFF" d="M119.08,148.57l0.09,1.69c0.02,0.28,0.04,0.46,0.08,0.52c0.03,0.07,0.1,0.13,0.19,0.17
			c0.09,0.05,0.21,0.07,0.36,0.06l0.18-0.01l0.01,0.15l-2.81,0.15l0-0.15l0.18-0.01c0.15-0.01,0.28-0.05,0.37-0.1
			c0.07-0.04,0.12-0.11,0.15-0.2c0.02-0.07,0.03-0.24,0.01-0.52l-0.19-3.6c-0.02-0.28-0.04-0.46-0.07-0.52
			c-0.03-0.07-0.1-0.13-0.19-0.17c-0.09-0.05-0.21-0.07-0.36-0.06l-0.18,0.01l-0.01-0.15l2.81-0.15l0.01,0.15l-0.18,0.01
			c-0.16,0.01-0.28,0.04-0.37,0.1c-0.07,0.04-0.12,0.11-0.15,0.2c-0.03,0.06-0.03,0.23-0.02,0.51l0.09,1.55l1.9-0.1l-0.08-1.55
			c-0.02-0.28-0.04-0.45-0.07-0.52c-0.03-0.06-0.1-0.12-0.19-0.17c-0.09-0.05-0.22-0.07-0.36-0.06l-0.17,0.01l-0.01-0.15l2.81-0.15
			l0.01,0.15l-0.18,0.01c-0.16,0.01-0.28,0.04-0.37,0.1c-0.07,0.04-0.12,0.11-0.15,0.2c-0.02,0.06-0.03,0.23-0.02,0.51l0.2,3.6
			c0.02,0.28,0.04,0.46,0.07,0.53c0.03,0.07,0.09,0.13,0.19,0.17c0.09,0.05,0.21,0.07,0.36,0.06l0.18-0.01l0.01,0.15l-2.81,0.15
			l-0.01-0.15l0.17-0.01c0.16-0.01,0.28-0.04,0.38-0.1c0.06-0.04,0.11-0.11,0.15-0.2c0.02-0.07,0.03-0.24,0.01-0.51l-0.09-1.69
			L119.08,148.57z"/>
		<path fill="#FFFFFF" d="M126.81,148.92l-1.89,0.27l-0.15,0.56c-0.05,0.19-0.06,0.34-0.05,0.45c0.02,0.15,0.1,0.26,0.23,0.31
			c0.08,0.04,0.26,0.04,0.54,0.02l0.02,0.15l-1.77,0.25l-0.02-0.15c0.18-0.06,0.33-0.16,0.44-0.31c0.1-0.15,0.21-0.44,0.34-0.88
			l1.28-4.6l0.08-0.01l2.57,4.17c0.25,0.39,0.43,0.64,0.57,0.73c0.1,0.07,0.23,0.1,0.4,0.09l0.02,0.15l-2.58,0.37l-0.02-0.15
			l0.1-0.02c0.21-0.03,0.34-0.07,0.42-0.14c0.05-0.05,0.07-0.12,0.06-0.2c-0.01-0.05-0.03-0.1-0.04-0.14
			c-0.01-0.03-0.07-0.12-0.16-0.29L126.81,148.92z M126.63,148.65l-1.06-1.76l-0.55,1.98L126.63,148.65z"/>
		<path fill="#FFFFFF" d="M133.84,143.36l0.44,1.85l-0.15,0.03c-0.23-0.46-0.53-0.78-0.9-0.96c-0.37-0.18-0.76-0.23-1.15-0.14
			c-0.32,0.08-0.6,0.24-0.83,0.5c-0.23,0.25-0.37,0.55-0.42,0.89c-0.07,0.43-0.04,0.9,0.07,1.38c0.11,0.48,0.28,0.89,0.49,1.26
			c0.21,0.37,0.47,0.62,0.77,0.76c0.3,0.14,0.65,0.16,1.05,0.07c0.33-0.08,0.61-0.22,0.85-0.43c0.24-0.21,0.47-0.53,0.69-0.96
			l0.11,0.46c-0.22,0.38-0.47,0.68-0.76,0.89c-0.29,0.21-0.64,0.37-1.07,0.47c-0.56,0.13-1.08,0.13-1.57,0.01
			c-0.49-0.13-0.91-0.38-1.25-0.75c-0.34-0.37-0.57-0.8-0.68-1.28c-0.13-0.51-0.11-1.02,0.04-1.54c0.15-0.52,0.42-0.96,0.81-1.31
			c0.38-0.36,0.82-0.59,1.33-0.71c0.37-0.09,0.78-0.1,1.23-0.03c0.26,0.04,0.42,0.05,0.48,0.04c0.09-0.02,0.15-0.07,0.19-0.14
			c0.04-0.07,0.06-0.18,0.05-0.32L133.84,143.36z"/>
		<path fill="#FFFFFF" d="M138.65,147.56l0.05,0.14l-2.69,0.84l-0.05-0.14l0.17-0.05c0.15-0.05,0.26-0.11,0.34-0.19
			c0.06-0.06,0.09-0.13,0.1-0.23c0.01-0.07-0.03-0.24-0.12-0.5l-1.1-3.44c-0.08-0.27-0.15-0.43-0.2-0.49
			c-0.05-0.06-0.12-0.1-0.22-0.12c-0.1-0.03-0.22-0.02-0.37,0.03l-0.17,0.05l-0.04-0.14l2.69-0.84l0.05,0.14l-0.17,0.05
			c-0.15,0.05-0.26,0.11-0.34,0.2c-0.05,0.05-0.08,0.13-0.09,0.23c-0.01,0.07,0.03,0.23,0.11,0.5l1.1,3.44
			c0.09,0.27,0.15,0.43,0.21,0.49c0.05,0.06,0.13,0.1,0.23,0.12c0.1,0.02,0.23,0.01,0.37-0.03L138.65,147.56z"/>
		<path fill="#FFFFFF" d="M139.3,141.98l0.83,2.08l0.1-0.04c0.32-0.12,0.51-0.32,0.57-0.58c0.06-0.26,0.03-0.59-0.09-1l0.14-0.06
			l1.07,2.67l-0.14,0.06c-0.15-0.28-0.3-0.49-0.47-0.64c-0.17-0.15-0.33-0.23-0.48-0.24c-0.15-0.01-0.35,0.03-0.58,0.12l0.57,1.43
			c0.11,0.28,0.19,0.45,0.24,0.51c0.05,0.05,0.11,0.09,0.19,0.1c0.08,0.01,0.19-0.01,0.34-0.06l0.3-0.12
			c0.47-0.19,0.8-0.44,0.99-0.77c0.2-0.33,0.27-0.75,0.21-1.25l0.14-0.05l0.42,1.71l-4.33,1.69l-0.06-0.14l0.16-0.06
			c0.15-0.06,0.26-0.13,0.32-0.22c0.05-0.06,0.07-0.14,0.07-0.24c0.01-0.07-0.04-0.24-0.15-0.49l-1.34-3.35
			c-0.09-0.23-0.15-0.37-0.19-0.42c-0.06-0.08-0.13-0.13-0.22-0.15c-0.12-0.03-0.26-0.02-0.43,0.05l-0.16,0.07l-0.06-0.14l4.2-1.64
			l0.6,1.51l-0.14,0.06c-0.22-0.34-0.42-0.56-0.62-0.67c-0.19-0.11-0.42-0.15-0.69-0.14c-0.15,0.01-0.42,0.09-0.8,0.23L139.3,141.98
			z"/>
		<path fill="#FFFFFF" d="M143.86,139.68l3.93,1.84l-1.08-2.1c-0.15-0.29-0.3-0.47-0.43-0.53c-0.18-0.08-0.41-0.05-0.67,0.09
			l-0.07-0.13l1.59-0.8l0.07,0.13c-0.19,0.13-0.31,0.23-0.35,0.31c-0.05,0.08-0.07,0.17-0.06,0.29c0.01,0.11,0.07,0.28,0.19,0.51
			l2.09,4.07l-0.12,0.06l-5.35-2.44l1.6,3.1c0.14,0.28,0.31,0.44,0.48,0.47c0.18,0.04,0.35,0.01,0.52-0.07l0.11-0.06l0.07,0.13
			l-1.71,0.86l-0.07-0.13c0.27-0.14,0.43-0.29,0.47-0.44c0.05-0.16,0.01-0.37-0.13-0.63l-1.77-3.44l-0.17-0.08
			c-0.17-0.08-0.31-0.12-0.4-0.12c-0.1,0-0.22,0.03-0.37,0.1l-0.07-0.14L143.86,139.68z"/>
		<path fill="#FFFFFF" d="M150.24,142.59l-0.08-0.13l0.15-0.1c0.13-0.08,0.21-0.17,0.26-0.26c0.04-0.09,0.06-0.17,0.05-0.27
			c-0.01-0.06-0.1-0.21-0.25-0.45l-1.96-3.04c-0.15-0.24-0.26-0.38-0.32-0.42c-0.06-0.04-0.14-0.06-0.25-0.06
			c-0.1,0-0.22,0.04-0.35,0.12l-0.15,0.1l-0.08-0.13l2.03-1.28c0.54-0.34,1.03-0.54,1.46-0.59c0.52-0.07,1.01,0.01,1.46,0.25
			c0.45,0.24,0.83,0.6,1.13,1.06c0.21,0.33,0.35,0.66,0.43,1c0.08,0.34,0.09,0.65,0.04,0.93c-0.05,0.28-0.14,0.54-0.29,0.78
			c-0.14,0.24-0.35,0.49-0.62,0.74c-0.12,0.12-0.32,0.26-0.62,0.45L150.24,142.59z M149.16,137.14l2.33,3.61
			c0.12,0.19,0.21,0.3,0.26,0.33c0.05,0.03,0.1,0.04,0.15,0.04c0.08,0,0.18-0.04,0.3-0.11c0.37-0.23,0.57-0.54,0.6-0.92
			c0.04-0.52-0.17-1.15-0.65-1.88c-0.38-0.59-0.78-1.01-1.19-1.25c-0.33-0.18-0.64-0.25-0.93-0.21
			C149.82,136.77,149.53,136.91,149.16,137.14z"/>
		<path fill="#FFFFFF" d="M154.4,132.98c0.67-0.53,1.39-0.74,2.15-0.64c0.76,0.1,1.4,0.47,1.91,1.11c0.44,0.55,0.66,1.15,0.68,1.81
			c0.02,0.87-0.35,1.6-1.11,2.2c-0.76,0.59-1.56,0.79-2.39,0.58c-0.66-0.16-1.22-0.52-1.67-1.09c-0.51-0.64-0.72-1.34-0.63-2.1
			C153.42,134.09,153.77,133.46,154.4,132.98z M154.63,133.2c-0.39,0.3-0.52,0.73-0.4,1.29c0.1,0.46,0.39,0.99,0.88,1.61
			c0.59,0.74,1.15,1.18,1.68,1.33c0.38,0.11,0.72,0.04,1.04-0.21c0.22-0.17,0.35-0.36,0.41-0.58c0.08-0.28,0.05-0.6-0.09-0.98
			c-0.14-0.38-0.39-0.8-0.78-1.28c-0.45-0.57-0.85-0.96-1.18-1.16c-0.33-0.2-0.62-0.3-0.87-0.29
			C155.08,132.94,154.85,133.03,154.63,133.2z"/>
		<path fill="#FFFFFF" d="M159.71,132.09l-0.14-0.15c0.12-0.26,0.17-0.53,0.13-0.79c-0.04-0.27-0.15-0.48-0.31-0.65
			c-0.04-0.04-0.07-0.06-0.1-0.06c-0.02-0.01-0.03-0.01-0.04,0c-0.01,0.01-0.02,0.03-0.02,0.06c-0.02,0.1-0.07,0.2-0.16,0.29
			c-0.11,0.1-0.25,0.15-0.42,0.14c-0.17-0.01-0.32-0.08-0.44-0.2c-0.13-0.13-0.2-0.29-0.2-0.48c0-0.19,0.07-0.35,0.21-0.48
			c0.16-0.15,0.36-0.21,0.61-0.19c0.25,0.02,0.48,0.15,0.7,0.37c0.26,0.26,0.4,0.57,0.45,0.93
			C160.01,131.23,159.93,131.64,159.71,132.09z M161.09,130.79l-0.14-0.15c0.13-0.26,0.17-0.52,0.13-0.79
			c-0.05-0.26-0.15-0.48-0.31-0.65c-0.03-0.04-0.07-0.06-0.1-0.06c-0.02-0.01-0.03-0.01-0.04,0c-0.01,0.01-0.02,0.03-0.02,0.06
			c-0.02,0.1-0.07,0.2-0.17,0.29c-0.11,0.11-0.25,0.15-0.42,0.14c-0.17-0.01-0.32-0.08-0.44-0.2c-0.13-0.13-0.19-0.29-0.19-0.48
			c0-0.19,0.07-0.35,0.21-0.48c0.16-0.15,0.36-0.22,0.61-0.19c0.25,0.02,0.48,0.15,0.7,0.37c0.26,0.26,0.41,0.57,0.45,0.93
			C161.39,129.93,161.31,130.33,161.09,130.79z"/>
	</g>
	<g>
		<path fill="#020002" d="M77.09,150.06l-0.61-0.77l0.56-0.46l0.64,0.81l0.56-0.85l0.6,0.39l-0.55,0.89l0.95,0.25l-0.2,0.7
			l-0.96-0.25l0.02,1l-0.72,0.04l-0.04-1.04l-0.93,0.35l-0.27-0.67L77.09,150.06z"/>
		<path fill="#020002" d="M82.53,156.36l-1.05-0.54l2.21-4.37l-1.08-0.56l0.41-0.81l2.23,0.91L82.53,156.36z"/>
		<path fill="#020002" d="M86.45,157.25c0.27,0.11,0.53,0.1,0.79-0.03c0.26-0.13,0.46-0.38,0.61-0.75l0.15-0.35
			c-0.18,0.11-0.38,0.16-0.58,0.17c-0.2,0.01-0.4-0.02-0.59-0.1c-0.5-0.21-0.83-0.55-0.98-1c-0.15-0.45-0.1-0.96,0.13-1.53
			c0.23-0.55,0.59-0.93,1.08-1.15c0.49-0.22,1-0.22,1.53,0.01c0.55,0.23,0.91,0.6,1.11,1.12c0.19,0.52,0.15,1.1-0.12,1.76
			l-0.61,1.48c-0.26,0.63-0.66,1.06-1.19,1.27c-0.53,0.21-1.09,0.2-1.67-0.05c-0.19-0.08-0.37-0.18-0.56-0.31
			c-0.18-0.13-0.35-0.26-0.49-0.41l0.51-0.72c0.13,0.13,0.26,0.24,0.4,0.34C86.1,157.09,86.26,157.17,86.45,157.25z M87.34,155.46
			c0.18,0.07,0.34,0.1,0.51,0.09c0.16-0.01,0.31-0.07,0.44-0.16l0.27-0.64c0.14-0.34,0.18-0.64,0.12-0.88
			c-0.06-0.24-0.21-0.41-0.45-0.51c-0.22-0.09-0.44-0.06-0.66,0.09c-0.22,0.15-0.39,0.37-0.52,0.67c-0.13,0.31-0.17,0.59-0.13,0.83
			C86.97,155.19,87.11,155.36,87.34,155.46z"/>
		<path fill="#020002" d="M94.19,156.31c-0.09,0.28-0.24,0.5-0.46,0.67c-0.21,0.17-0.47,0.27-0.76,0.31
			c0.26,0.23,0.44,0.49,0.55,0.79c0.1,0.3,0.1,0.6,0,0.9c-0.18,0.52-0.49,0.87-0.95,1.04c-0.46,0.17-0.96,0.16-1.52-0.03
			c-0.58-0.2-1.02-0.51-1.3-0.92c-0.28-0.42-0.33-0.89-0.16-1.41c0.1-0.3,0.28-0.54,0.55-0.72c0.26-0.17,0.58-0.27,0.93-0.29
			c-0.22-0.21-0.37-0.45-0.45-0.71c-0.08-0.27-0.07-0.54,0.02-0.82c0.17-0.49,0.46-0.82,0.89-0.97c0.42-0.15,0.9-0.14,1.44,0.04
			c0.51,0.17,0.89,0.45,1.12,0.83C94.32,155.38,94.35,155.82,94.19,156.31z M92.41,158.54c0.08-0.25,0.08-0.48-0.02-0.7
			c-0.1-0.21-0.27-0.36-0.5-0.43c-0.25-0.08-0.49-0.08-0.71,0.03c-0.22,0.11-0.37,0.28-0.45,0.53c-0.08,0.26-0.07,0.49,0.04,0.69
			c0.12,0.21,0.3,0.36,0.56,0.44c0.23,0.08,0.45,0.07,0.65-0.03C92.18,158.97,92.33,158.8,92.41,158.54z M93.06,155.98
			c0.07-0.22,0.08-0.42,0-0.58c-0.07-0.17-0.2-0.29-0.38-0.35c-0.21-0.07-0.4-0.06-0.57,0.02c-0.17,0.08-0.29,0.24-0.37,0.47
			c-0.07,0.23-0.07,0.44,0.01,0.62c0.08,0.18,0.23,0.31,0.43,0.38c0.18,0.06,0.36,0.04,0.51-0.06
			C92.86,156.38,92.98,156.22,93.06,155.98z"/>
		<path fill="#020002" d="M95.79,160.46c0.28,0.07,0.54,0.03,0.78-0.14c0.24-0.17,0.4-0.44,0.5-0.83l0.09-0.37
			c-0.17,0.13-0.35,0.22-0.55,0.26c-0.2,0.04-0.4,0.03-0.6-0.02c-0.53-0.14-0.9-0.42-1.11-0.85c-0.21-0.43-0.24-0.94-0.08-1.54
			c0.15-0.58,0.45-1.01,0.91-1.29c0.46-0.29,0.96-0.35,1.52-0.21c0.58,0.15,0.99,0.47,1.26,0.95c0.26,0.49,0.3,1.07,0.13,1.76
			l-0.4,1.55c-0.17,0.66-0.51,1.14-1,1.42c-0.5,0.29-1.05,0.35-1.66,0.19c-0.2-0.05-0.4-0.13-0.59-0.23
			c-0.2-0.1-0.38-0.21-0.54-0.34l0.41-0.78c0.15,0.11,0.29,0.21,0.44,0.28C95.42,160.34,95.59,160.4,95.79,160.46z M96.43,158.56
			c0.18,0.05,0.36,0.05,0.52,0.01c0.16-0.04,0.3-0.11,0.41-0.22l0.18-0.67c0.09-0.36,0.09-0.66-0.01-0.88
			c-0.1-0.23-0.27-0.38-0.51-0.44c-0.23-0.06-0.44,0-0.64,0.17c-0.2,0.18-0.33,0.42-0.42,0.74c-0.09,0.33-0.09,0.61-0.01,0.84
			C96.03,158.34,96.19,158.49,96.43,158.56z"/>
		<path fill="#020002" d="M103.68,160.85l-2.35-0.41l0.16-0.91l2.35,0.41L103.68,160.85z"/>
		<path fill="#020002" d="M108.97,161.96l0.04,0.33l0.02,0l0.1-0.31l1.65-4.22l1.24,0.11l-2.5,5.75l-1.21-0.1l-1.49-6.09l1.24,0.11
			L108.97,161.96z"/>
		<path fill="#020002" d="M115.73,161.28l-2.18-0.05l-0.04,1.7l2.6,0.06l-0.02,0.91l-3.77-0.09l0.13-5.94l3.77,0.09l-0.02,0.92
			l-2.59-0.06l-0.03,1.49l2.18,0.05L115.73,161.28z"/>
		<path fill="#020002" d="M121.9,163.7l-1.18,0.05l-2.54-3.9l-0.02,0.01l0.17,4l-1.18,0.05l-0.25-5.94l1.18-0.05l2.54,3.9l0.03-0.01
			l-0.17-4l1.18-0.05L121.9,163.7z"/>
		<path fill="#020002" d="M126.27,160.62l-2.17,0.24l0.18,1.69l2.58-0.28l0.1,0.91l-3.75,0.41l-0.64-5.91l3.75-0.41l0.1,0.91
			l-2.57,0.28l0.16,1.48l2.17-0.24L126.27,160.62z"/>
		<path fill="#020002" d="M128.99,161.92l2.66-0.46l0.15,0.9l-4.03,0.7l-0.11-0.61l1.85-4.79l-2.58,0.45l-0.15-0.91l3.96-0.69
			l0.1,0.59L128.99,161.92z"/>
		<path fill="#020002" d="M136,155.25l0.92,3.78c0.16,0.65,0.07,1.21-0.27,1.68c-0.34,0.47-0.85,0.79-1.53,0.96
			c-0.68,0.17-1.27,0.12-1.78-0.14c-0.51-0.26-0.85-0.72-1.01-1.37l-0.92-3.78l1.15-0.29l0.92,3.78c0.09,0.39,0.27,0.66,0.52,0.81
			c0.25,0.15,0.56,0.19,0.91,0.1c0.35-0.09,0.61-0.26,0.76-0.51c0.15-0.26,0.19-0.57,0.09-0.96l-0.91-3.78L136,155.25z"/>
		<path fill="#020002" d="M141.03,157.12l-2.08,0.68l0.52,1.62l2.47-0.81l0.28,0.87l-3.59,1.18l-1.82-5.65l3.58-1.17l0.28,0.87
			l-2.46,0.81l0.46,1.42l2.08-0.68L141.03,157.12z"/>
		<path fill="#020002" d="M143.97,157.81l2.45-0.99l0.34,0.85l-3.54,1.44l-2.2-5.51l1.09-0.44L143.97,157.81z"/>
		<path fill="#020002" d="M149.98,154.67l-1.71,0.86l0.22,1.33l-1.11,0.56l-0.85-6.21l1.08-0.54l4.4,4.43l-1.1,0.56L149.98,154.67z
			 M148.12,154.56l1.19-0.6l-1.51-1.58l-0.02,0.01L148.12,154.56z"/>
		<path fill="#020002" d="M153.63,150.9l-0.95,0.25l-0.19-0.7l0.99-0.26l-0.54-0.86l0.6-0.39l0.59,0.87l0.61-0.78l0.56,0.47
			l-0.62,0.79l0.92,0.39l-0.26,0.68l-0.96-0.38l-0.06,1l-0.72-0.03L153.63,150.9z"/>
	</g>
	<g>
		<g>
			<g>
				<defs>
					<path id="SVGID_1_" d="M75.06,34.45v59.35c0,21.23,18.33,38.45,40.94,38.45c22.61,0,40.95-17.21,40.95-38.45V34.45H75.06z"/>
				</defs>
				<clipPath id="SVGID_2_">
					<use xlink:href="#SVGID_1_"  overflow="visible"/>
				</clipPath>
				
					<radialGradient id="SVGID_3_" cx="-382.738" cy="584.0457" r="0.1781" gradientTransform="matrix(0 -491.268 -498.0131 0 290978.4062 -187925.4844)" gradientUnits="userSpaceOnUse">
					<stop  offset="0" style="stop-color:#FFFFFF"/>
					<stop  offset="0.3083" style="stop-color:#98A8C1"/>
					<stop  offset="0.6303" style="stop-color:#425FA3"/>
					<stop  offset="0.8226" style="stop-color:#1E388C"/>
				</radialGradient>
				<rect x="75.06" y="34.45" clip-path="url(#SVGID_2_)" fill="url(#SVGID_3_)" width="81.89" height="97.8"/>
			</g>
			<g>
				<defs>
					<path id="SVGID_4_" d="M159.14,32.66v61.71c0,20.91-16.87,38.12-38.53,40.28c-1.52,0.14-3.05,0.21-4.61,0.21
						c-1.56,0-3.1-0.07-4.62-0.21c-21.65-2.16-38.53-19.37-38.53-40.28V32.66l-3.76-2.69v64.61c0,23.58,21,42.7,46.91,42.7
						c25.9,0,46.91-19.12,46.91-42.7V29.96L159.14,32.66z"/>
				</defs>
				<clipPath id="SVGID_5_">
					<use xlink:href="#SVGID_4_"  overflow="visible"/>
				</clipPath>
				
					<linearGradient id="SVGID_6_" gradientUnits="userSpaceOnUse" x1="-382.5406" y1="584.0014" x2="-382.3602" y2="584.0014" gradientTransform="matrix(0 -594.7772 -594.7772 0 347466.7188 -227389.1562)">
					<stop  offset="0" style="stop-color:#FFFFFF"/>
					<stop  offset="0.4677" style="stop-color:#354C98"/>
					<stop  offset="1" style="stop-color:#1E388C"/>
				</linearGradient>
				<rect x="69.09" y="29.96" clip-path="url(#SVGID_5_)" fill="url(#SVGID_6_)" width="93.81" height="107.31"/>
			</g>
			<g>
				<defs>
					<polygon id="SVGID_7_" points="69.72,28.67 74.14,31.83 157.86,31.83 162.28,28.67 					"/>
				</defs>
				
					<radialGradient id="SVGID_8_" cx="95.6203" cy="14.6064" r="31.877" gradientTransform="matrix(1.0272 0 0 1.0133 17.7793 15.4517)" gradientUnits="userSpaceOnUse">
					<stop  offset="0" style="stop-color:#FFFFFF"/>
					<stop  offset="0.2634" style="stop-color:#7D8CBC"/>
					<stop  offset="0.6667" style="stop-color:#354C98"/>
					<stop  offset="1" style="stop-color:#1E388C"/>
				</radialGradient>
				<use xlink:href="#SVGID_7_"  overflow="visible" fill="url(#SVGID_8_)"/>
				<clipPath id="SVGID_9_">
					<use xlink:href="#SVGID_7_"  overflow="visible"/>
				</clipPath>
				
					<radialGradient id="SVGID_10_" cx="-383.1154" cy="582.9012" r="0.178" gradientTransform="matrix(183.9046 0 0 -181.4138 70572.6953 105776.5859)" gradientUnits="userSpaceOnUse">
					<stop  offset="0" style="stop-color:#FFFFFF"/>
					<stop  offset="0.2634" style="stop-color:#7D8CBC"/>
					<stop  offset="0.6667" style="stop-color:#354C98"/>
					<stop  offset="1" style="stop-color:#1E388C"/>
				</radialGradient>
				<rect x="69.72" y="28.67" clip-path="url(#SVGID_9_)" fill="url(#SVGID_10_)" width="92.56" height="3.16"/>
			</g>
		</g>
		<g>
			<g>
				<defs>
					<path id="SVGID_11_" d="M114.82,120.71c0.05,0.7,0.22,1.73,0.72,2.87c1.07,2.42,2.95,3.65,3.65,4.1c3.12,2,6.41,1.65,7.39,1.52
						c3.83-4.53,7.65-9.07,11.46-13.62c5.74-6.85,11.45-13.71,17.15-20.59c-1.55,1.3-4.84,1.14-7.97-0.52
						c-3.5-1.86-5.51-4.93-4.63-6.97C133.34,98.57,124.08,109.64,114.82,120.71"/>
				</defs>
				<clipPath id="SVGID_12_">
					<use xlink:href="#SVGID_11_"  overflow="visible"/>
				</clipPath>
				
					<linearGradient id="SVGID_13_" gradientUnits="userSpaceOnUse" x1="-384.3907" y1="584.7353" x2="-384.2075" y2="584.7353" gradientTransform="matrix(67.9196 53.0646 53.0646 -67.9196 -4792.665 60215.9648)">
					<stop  offset="0" style="stop-color:#B4C8E2"/>
					<stop  offset="0.553" style="stop-color:#1E388C"/>
					<stop  offset="0.8978" style="stop-color:#001C4C"/>
				</linearGradient>
				<polygon clip-path="url(#SVGID_12_)" fill="url(#SVGID_13_)" points="130.12,68.18 175.94,103.49 139.89,149 94.08,113.69 				
					"/>
			</g>
			<g>
				<defs>
					<path id="SVGID_14_" d="M121.3,128.7c0.53,0.18,1.18,0.36,1.94,0.48c0.83,0.13,1.57,0.15,2.17,0.12
						c9.26-11.17,18.51-22.34,27.77-33.5c-0.49,0.05-1.1,0.07-1.77,0.01c-0.95-0.09-1.73-0.31-2.31-0.53
						C139.82,106.42,130.56,117.56,121.3,128.7"/>
				</defs>
				<clipPath id="SVGID_15_">
					<use xlink:href="#SVGID_14_"  overflow="visible"/>
				</clipPath>
				
					<linearGradient id="SVGID_16_" gradientUnits="userSpaceOnUse" x1="-389.5951" y1="586.6113" x2="-389.4119" y2="586.6113" gradientTransform="matrix(19.767 15.4437 15.4437 -19.767 -1222.9274 17723.2012)">
					<stop  offset="0" style="stop-color:#9EACC4"/>
					<stop  offset="0.067" style="stop-color:#9EACC4"/>
					<stop  offset="0.3771" style="stop-color:#658EC3"/>
					<stop  offset="0.8495" style="stop-color:#1E388C"/>
				</linearGradient>
				<polygon clip-path="url(#SVGID_15_)" fill="url(#SVGID_16_)" points="133.38,80.02 169.92,108.18 141.09,144.58 104.55,116.42 
									"/>
			</g>
			<g>
				<defs>
					<path id="SVGID_17_" d="M142.69,87.3c-0.04,0.07-0.07,0.13-0.1,0.2c-0.88,2.04,1.13,5.1,4.63,6.97
						c3.13,1.66,6.42,1.82,7.97,0.52c0.2-0.24,0.4-0.48,0.6-0.72c1.11-2.03-0.92-5.24-4.54-7.17c-1.74-0.93-3.54-1.39-5.05-1.39
						C144.58,85.72,143.27,86.25,142.69,87.3"/>
				</defs>
				<clipPath id="SVGID_18_">
					<use xlink:href="#SVGID_17_"  overflow="visible"/>
				</clipPath>
				
					<linearGradient id="SVGID_19_" gradientUnits="userSpaceOnUse" x1="-383.01" y1="581.7061" x2="-382.8286" y2="581.7061" gradientTransform="matrix(-18.276 68.2069 68.2069 18.276 -46525.7539 15579.1934)">
					<stop  offset="0" style="stop-color:#DFE4EC"/>
					<stop  offset="0.2556" style="stop-color:#9EACC4"/>
					<stop  offset="0.5591" style="stop-color:#1E388C"/>
					<stop  offset="0.6398" style="stop-color:#001C4C"/>
				</linearGradient>
				<polygon clip-path="url(#SVGID_18_)" fill="url(#SVGID_19_)" points="159.58,86.43 155.89,100.03 139.04,95.58 142.73,81.97 
									"/>
			</g>
		</g>
		<polygon fill="#1E388C" points="115.31,102.59 97.85,82.42 88.9,117.94 		"/>
		<g>
			<defs>
				<path id="SVGID_20_" d="M75.06,93.81v0.29c0,1.85,0.14,3.67,0.41,5.45c3.7,5.07,9.78,13.38,13.44,18.39
					c2.98-11.84,5.96-23.68,8.94-35.53L75.06,93.81z"/>
			</defs>
			<clipPath id="SVGID_21_">
				<use xlink:href="#SVGID_20_"  overflow="visible"/>
			</clipPath>
			
				<linearGradient id="SVGID_22_" gradientUnits="userSpaceOnUse" x1="-381.6196" y1="585.0404" x2="-381.4361" y2="585.0404" gradientTransform="matrix(116.306 31.1641 31.1641 -116.306 26224.3203 80032.8281)">
				<stop  offset="0" style="stop-color:#FFFFFF"/>
				<stop  offset="0.5829" style="stop-color:#98A8C1"/>
				<stop  offset="0.8333" style="stop-color:#344E97"/>
				<stop  offset="1" style="stop-color:#1E388C"/>
			</linearGradient>
			<polygon clip-path="url(#SVGID_21_)" fill="url(#SVGID_22_)" points="76.58,76.8 106.85,84.8 96.32,123.56 66.05,115.56 			"/>
		</g>
		<g>
			<defs>
				<polygon id="SVGID_23_" points="101.58,77.04 87.17,107.4 116,107.4 144.83,107.4 130.42,77.04 116,46.67 				"/>
			</defs>
			<clipPath id="SVGID_24_">
				<use xlink:href="#SVGID_23_"  overflow="visible"/>
			</clipPath>
			
				<radialGradient id="SVGID_25_" cx="-383.1651" cy="583.8899" r="0.1781" gradientTransform="matrix(0 196.8201 199.5225 0 -116383.1641 75495.2266)" gradientUnits="userSpaceOnUse">
				<stop  offset="0" style="stop-color:#FFFFFF"/>
				<stop  offset="0.42" style="stop-color:#98A8C1"/>
				<stop  offset="0.6559" style="stop-color:#2A4592"/>
				<stop  offset="1" style="stop-color:#1E388C"/>
			</radialGradient>
			<rect x="87.17" y="46.67" clip-path="url(#SVGID_24_)" fill="url(#SVGID_25_)" width="57.66" height="60.73"/>
		</g>
		<g>
			<path fill="none" stroke="#FFFFFF" stroke-width="0.9978" stroke-linecap="round" stroke-miterlimit="10" d="M150.21,67.92
				c1.17,4.28,0.6,7.22-0.19,9.16c-4.58,11.21-27.23,14.62-43.52,8.42c-7.27-2.77-12.31-7.09-15.31-10.15"/>
			<path fill="none" stroke="#FFFFFF" stroke-width="0.9978" stroke-linecap="round" stroke-miterlimit="10" d="M80.5,60.08
				c-0.17-4.97,1.25-8.18,2.39-10.04c5.5-8.95,20.48-12.36,36.99-7.46"/>
			<g>
				<defs>
					<path id="SVGID_26_" d="M117.11,57.74c0,9.55,8.65,17.29,19.32,17.29c10.67,0,19.32-7.74,19.32-17.29
						c0-9.55-8.66-17.29-19.32-17.29C125.76,40.46,117.11,48.2,117.11,57.74"/>
				</defs>
				<clipPath id="SVGID_27_">
					<use xlink:href="#SVGID_26_"  overflow="visible"/>
				</clipPath>
				
					<radialGradient id="SVGID_28_" cx="-383.363" cy="585.2903" r="0.1781" gradientTransform="matrix(-63.4209 -82.4427 -82.5996 61.8321 24160.8379 -67745.5625)" gradientUnits="userSpaceOnUse">
					<stop  offset="0" style="stop-color:#98A8C1"/>
					<stop  offset="0.4991" style="stop-color:#42749A"/>
					<stop  offset="1" style="stop-color:#1E388C"/>
				</radialGradient>
				<polygon clip-path="url(#SVGID_27_)" fill="url(#SVGID_28_)" points="131.23,93.39 100.23,53.09 141.63,22.1 172.63,62.39 				
					"/>
			</g>
			<g>
				<defs>
					<path id="SVGID_29_" d="M76.25,66.67c0,5.72,5.15,10.37,11.5,10.37c6.35,0,11.5-4.64,11.5-10.37c0-5.72-5.15-10.36-11.5-10.36
						C81.39,56.31,76.25,60.95,76.25,66.67"/>
				</defs>
				
					<radialGradient id="SVGID_30_" cx="72.8408" cy="50.8297" r="7.521" gradientTransform="matrix(1.0272 0 0 1.0133 17.7793 15.4517)" gradientUnits="userSpaceOnUse">
					<stop  offset="0" style="stop-color:#FFFFFF"/>
					<stop  offset="0.1667" style="stop-color:#7F8EBC"/>
					<stop  offset="0.7527" style="stop-color:#334C98"/>
					<stop  offset="1" style="stop-color:#1E388C"/>
				</radialGradient>
				<use xlink:href="#SVGID_29_"  overflow="visible" fill="url(#SVGID_30_)"/>
				<clipPath id="SVGID_31_">
					<use xlink:href="#SVGID_29_"  overflow="visible"/>
				</clipPath>
				
					<radialGradient id="SVGID_32_" cx="-384.9351" cy="582.9049" r="0.1781" gradientTransform="matrix(-37.5417 -49.1817 -49.659 36.8862 14578.8701 -40371.082)" gradientUnits="userSpaceOnUse">
					<stop  offset="0" style="stop-color:#FFFFFF"/>
					<stop  offset="0.1667" style="stop-color:#7F8EBC"/>
					<stop  offset="0.7527" style="stop-color:#334C98"/>
					<stop  offset="1" style="stop-color:#1E388C"/>
				</radialGradient>
				<polygon clip-path="url(#SVGID_31_)" fill="url(#SVGID_32_)" points="84.56,87.93 66.15,63.81 90.92,45.41 109.33,69.54 				"/>
			</g>
			<path fill="#001C4C" d="M94.78,59.56c0.54,1.08,1.42,3.27,0.97,5.88c-0.8,4.61-5.33,7.85-9.68,8.37
				c-3.09,0.38-5.58-0.69-6.78-1.3c0.55,0.57,4.03,4.07,9.1,3.74c4.65-0.3,9.74-3.75,10.13-8.71
				C98.87,63.12,95.28,59.99,94.78,59.56"/>
			<g>
				<g>
					<defs>
						<path id="SVGID_33_" d="M117.35,46.09c0,3.75,3.41,6.8,7.61,6.8c4.2,0,7.61-3.04,7.61-6.8c0-3.75-3.41-6.79-7.61-6.79
							C120.76,39.29,117.35,42.34,117.35,46.09"/>
					</defs>
					<clipPath id="SVGID_34_">
						<use xlink:href="#SVGID_33_"  overflow="visible"/>
					</clipPath>
					
						<radialGradient id="SVGID_35_" cx="-385.0129" cy="587.1235" r="0.1781" gradientTransform="matrix(-24.9831 -32.4357 -32.4567 24.3268 9559.4258 -26728.0879)" gradientUnits="userSpaceOnUse">
						<stop  offset="0" style="stop-color:#FFFFFF"/>
						<stop  offset="0.1667" style="stop-color:#7F8EBC"/>
						<stop  offset="0.7527" style="stop-color:#334C98"/>
						<stop  offset="1" style="stop-color:#1E388C"/>
					</radialGradient>
					<polygon clip-path="url(#SVGID_34_)" fill="url(#SVGID_35_)" points="122.92,60.12 110.71,44.27 126.99,32.07 139.2,47.91 
											"/>
				</g>
				<path fill="#001C4C" d="M129.61,41.43c0.36,0.71,0.95,2.15,0.64,3.86c-0.53,3.02-3.53,5.15-6.4,5.49
					c-2.05,0.25-3.7-0.45-4.49-0.85c0.37,0.37,2.67,2.67,6.03,2.45c3.08-0.19,6.45-2.46,6.7-5.71
					C132.32,43.76,129.95,41.71,129.61,41.43"/>
			</g>
		</g>
		<path fill="#FFFFFF" d="M147.74,63.66l-2.9,0.39l-10.29-1.06l-4.96,0.7h-5.89c-0.44-0.17-1.17-0.38-2.09-0.38
			c-0.9,0-1.62,0.21-2.06,0.38c-0.24-0.17-0.59-0.48-0.91-0.95c-0.31-0.47-0.44-0.91-0.51-1.2c0.09-0.21,0.2-0.53,0.23-0.93
			c0.04-0.49-0.06-0.89-0.14-1.13c0.11-0.02,0.29-0.05,0.5-0.05c0.24-0.01,0.33,0.02,0.41-0.05c0.11-0.09,0.1-0.25,0.11-0.5
			c0.01-0.18,0.04-0.43,0.13-0.74c0.03-0.06,0.08-0.15,0.11-0.26c0.05-0.16,0.13-0.46-0.02-0.61c-0.12-0.11-0.37-0.1-0.59,0.03
			c0.06-1.66-0.34-3.04-1.03-3.31c-0.13-0.05-0.58-0.19-1.13-0.26c-0.31-0.04-0.56-0.05-0.74-0.05c-0.17,0-0.43,0.01-0.74,0.05
			c-0.55,0.07-1,0.21-1.13,0.26c-0.68,0.27-1.08,1.65-1.03,3.31c-0.22-0.13-0.47-0.14-0.59-0.03c-0.15,0.14-0.07,0.44-0.02,0.61
			c0.03,0.11,0.08,0.2,0.11,0.26c0.09,0.31,0.12,0.57,0.13,0.74c0.02,0.25,0,0.41,0.11,0.5c0.09,0.06,0.18,0.04,0.41,0.05
			c0.22,0.01,0.39,0.03,0.5,0.05c-0.08,0.24-0.17,0.64-0.14,1.13c0.03,0.4,0.14,0.72,0.23,0.93c-0.06,0.29-0.2,0.73-0.51,1.2
			c-0.31,0.47-0.67,0.78-0.91,0.95c-0.44-0.17-1.15-0.37-2.06-0.38c-0.91,0-1.64,0.21-2.09,0.38h-5.89l-4.96-0.7l-10.29,1.06
			l-2.9-0.39l-2.21,1.47l1.83,1.97h3.74c0.17-0.21,0.45-0.5,0.86-0.75c0.3-0.18,0.59-0.29,0.8-0.35c0.66-0.01,1.32-0.02,1.98-0.03
			l5.99,1.52c1.14-0.07,2.04-0.13,2.61-0.17c0.92-0.06,1.85-0.07,2.77-0.11c0.78-0.04,0.7-0.05,0.99-0.06
			c1.44-0.04,2.27-0.07,2.88,0.29c0.23,0.14,0.53,0.37,1.1,2.05c1.01,2.96,0.85,4.39,1.78,5.8c0.1,0.15,0.38,0.56,0.7,1.17
			c0.34,0.65,0.55,1.21,0.67,1.55c-0.38,0.44-1.07,3.73-1.35,5.34c-0.38,2.09-0.93,2.21-0.96,3.77c-0.03,1.39,0.41,1.6,0.17,2.84
			c-0.16,0.84-0.4,1-0.79,2.29c-0.12,0.42-0.39,1.31-0.48,2.25c-0.04,0.46-0.05,1,0.51,3.95c0.4,2.13,0.52,2.45,0.48,3.28
			c-0.03,0.63-0.14,1.15-0.34,2.14c-0.22,1.08-0.45,1.95-0.62,2.56c-0.35,0.95-0.69,1.95-1.01,3c-0.23,0.74-0.44,1.47-0.63,2.17
			c0.2,1.79,0.4,3.6,0.57,5.42c0.13,1.3,0.25,2.6,0.36,3.88c-0.33,0.62-0.67,1.11-0.95,1.45c-0.51,0.64-0.78,0.97-1.25,1.23
			c-0.8,0.45-1.38,0.26-1.51,0.61c-0.12,0.33,0.27,0.85,0.71,1.08c0.32,0.18,0.52,0.11,1.52,0.11c1.36-0.01,1.4,0.11,1.84-0.03
			c0.25-0.08,0.12-0.08,1.33-0.77c0.64-0.37,0.85-0.46,0.96-0.73c0.13-0.31-0.03-0.49-0.03-0.97c0-0.32,0.06-0.74,0.32-1.24v-1.01
			v-3.22l2.11-4.64l1.04-7.12c0.02-0.68,0.13-1.63,0.52-2.69c0.26-0.71,0.57-1.28,0.86-1.73v-4.7c0.19-0.13,0.47-0.36,0.66-0.72
			c0.17-0.33,0.2-0.63,0.21-0.81c0.05-0.64,0.12-1.42,0.21-2.37c0.04-0.11,0.15-0.34,0.41-0.53c0.15-0.11,0.29-0.15,0.39-0.18
			c0.1,0.03,0.24,0.07,0.4,0.18c0.26,0.18,0.37,0.42,0.41,0.53c0.09,0.94,0.16,1.72,0.21,2.37c0.01,0.17,0.04,0.47,0.21,0.81
			c0.19,0.36,0.47,0.59,0.66,0.72v4.7c0.29,0.45,0.61,1.02,0.87,1.73c0.39,1.06,0.5,2.01,0.52,2.69l1.04,7.12l2.11,4.64v3.22v1.01
			c0.26,0.5,0.32,0.92,0.32,1.24c-0.01,0.48-0.16,0.66-0.04,0.97c0.11,0.27,0.32,0.36,0.96,0.73c1.22,0.7,1.08,0.69,1.33,0.77
			c0.43,0.14,0.47,0.02,1.84,0.03c1,0.01,1.2,0.07,1.52-0.11c0.43-0.24,0.83-0.75,0.7-1.08c-0.13-0.35-0.7-0.16-1.5-0.61
			c-0.48-0.27-0.74-0.6-1.26-1.23c-0.27-0.34-0.62-0.82-0.94-1.45c0.11-1.28,0.23-2.58,0.36-3.88c0.18-1.83,0.37-3.64,0.57-5.42
			c-0.19-0.71-0.4-1.43-0.63-2.17c-0.32-1.05-0.66-2.05-1.01-3c-0.17-0.61-0.4-1.48-0.62-2.56c-0.2-0.99-0.31-1.51-0.34-2.14
			c-0.04-0.84,0.08-1.15,0.48-3.28c0.56-2.95,0.55-3.48,0.51-3.95c-0.09-0.95-0.35-1.83-0.48-2.25c-0.39-1.3-0.63-1.46-0.79-2.29
			c-0.24-1.24,0.2-1.45,0.17-2.84c-0.03-1.56-0.59-1.68-0.96-3.77c-0.29-1.61-0.97-4.9-1.35-5.34c0.12-0.34,0.32-0.9,0.66-1.55
			c0.32-0.61,0.6-1.02,0.7-1.17c0.93-1.41,0.77-2.84,1.78-5.8c0.57-1.68,0.87-1.91,1.1-2.05c0.6-0.36,1.43-0.33,2.87-0.29
			c0.29,0.01,0.21,0.02,0.99,0.06c0.92,0.04,1.84,0.05,2.76,0.11c0.57,0.04,1.48,0.1,2.61,0.17l5.99-1.52
			c0.66,0.01,1.32,0.02,1.98,0.03c0.22,0.06,0.5,0.17,0.8,0.35c0.41,0.25,0.69,0.54,0.86,0.75h3.74l1.83-1.97L147.74,63.66z"/>
		<path fill="none" stroke="#FFFFFF" stroke-width="0.2118" stroke-miterlimit="10" d="M147.74,63.66l-2.9,0.39l-10.29-1.06
			l-4.96,0.7h-5.89c-0.44-0.17-1.17-0.38-2.09-0.38c-0.9,0-1.62,0.21-2.06,0.38c-0.24-0.17-0.59-0.48-0.91-0.95
			c-0.31-0.47-0.44-0.91-0.51-1.2c0.09-0.21,0.2-0.53,0.23-0.93c0.04-0.49-0.06-0.89-0.14-1.13c0.11-0.02,0.29-0.05,0.5-0.05
			c0.24-0.01,0.33,0.02,0.41-0.05c0.11-0.09,0.1-0.25,0.11-0.5c0.01-0.18,0.04-0.43,0.13-0.74c0.03-0.06,0.08-0.15,0.11-0.26
			c0.05-0.16,0.13-0.46-0.02-0.61c-0.12-0.11-0.37-0.1-0.59,0.03c0.06-1.66-0.34-3.04-1.03-3.31c-0.13-0.05-0.58-0.19-1.13-0.26
			c-0.31-0.04-0.56-0.05-0.74-0.05c-0.17,0-0.43,0.01-0.74,0.05c-0.55,0.07-1,0.21-1.13,0.26c-0.68,0.27-1.08,1.65-1.03,3.31
			c-0.22-0.13-0.47-0.14-0.59-0.03c-0.15,0.14-0.07,0.44-0.02,0.61c0.03,0.11,0.08,0.2,0.11,0.26c0.09,0.31,0.12,0.57,0.13,0.74
			c0.02,0.25,0,0.41,0.11,0.5c0.09,0.06,0.18,0.04,0.41,0.05c0.22,0.01,0.39,0.03,0.5,0.05c-0.08,0.24-0.17,0.64-0.14,1.13
			c0.03,0.4,0.14,0.72,0.23,0.93c-0.06,0.29-0.2,0.73-0.51,1.2c-0.31,0.47-0.67,0.78-0.91,0.95c-0.44-0.17-1.15-0.37-2.06-0.38
			c-0.91,0-1.64,0.21-2.09,0.38h-5.89l-4.96-0.7l-10.29,1.06l-2.9-0.39l-2.21,1.47l1.83,1.97h3.74c0.17-0.21,0.45-0.5,0.86-0.75
			c0.3-0.18,0.59-0.29,0.8-0.35c0.66-0.01,1.32-0.02,1.98-0.03l5.99,1.52c1.14-0.07,2.04-0.13,2.61-0.17
			c0.92-0.06,1.85-0.07,2.77-0.11c0.78-0.04,0.7-0.05,0.99-0.06c1.44-0.04,2.27-0.07,2.88,0.29c0.23,0.14,0.53,0.37,1.1,2.05
			c1.01,2.96,0.85,4.39,1.78,5.8c0.1,0.15,0.38,0.56,0.7,1.17c0.34,0.65,0.55,1.21,0.67,1.55c-0.38,0.44-1.07,3.73-1.35,5.34
			c-0.38,2.09-0.93,2.21-0.96,3.77c-0.03,1.39,0.41,1.6,0.17,2.84c-0.16,0.84-0.4,1-0.79,2.29c-0.12,0.42-0.39,1.31-0.48,2.25
			c-0.04,0.46-0.05,1,0.51,3.95c0.4,2.13,0.52,2.45,0.48,3.28c-0.03,0.63-0.14,1.15-0.34,2.14c-0.22,1.08-0.45,1.95-0.62,2.56
			c-0.35,0.95-0.69,1.95-1.01,3c-0.23,0.74-0.44,1.47-0.63,2.17c0.2,1.79,0.4,3.6,0.57,5.42c0.13,1.3,0.25,2.6,0.36,3.88
			c-0.33,0.62-0.67,1.11-0.95,1.45c-0.51,0.64-0.78,0.97-1.25,1.23c-0.8,0.45-1.38,0.26-1.51,0.61c-0.12,0.33,0.27,0.85,0.71,1.08
			c0.32,0.18,0.52,0.11,1.52,0.11c1.36-0.01,1.4,0.11,1.84-0.03c0.25-0.08,0.12-0.08,1.33-0.77c0.64-0.37,0.85-0.46,0.96-0.73
			c0.13-0.31-0.03-0.49-0.03-0.97c0-0.32,0.06-0.74,0.32-1.24v-1.01v-3.22l2.11-4.64l1.04-7.12c0.02-0.68,0.13-1.63,0.52-2.69
			c0.26-0.71,0.57-1.28,0.86-1.73v-4.7c0.19-0.13,0.47-0.36,0.66-0.72c0.17-0.33,0.2-0.63,0.21-0.81c0.05-0.64,0.12-1.42,0.21-2.37
			c0.04-0.11,0.15-0.34,0.41-0.53c0.15-0.11,0.29-0.15,0.39-0.18c0.1,0.03,0.24,0.07,0.4,0.18c0.26,0.18,0.37,0.42,0.41,0.53
			c0.09,0.94,0.16,1.72,0.21,2.37c0.01,0.17,0.04,0.47,0.21,0.81c0.19,0.36,0.47,0.59,0.66,0.72v4.7c0.29,0.45,0.61,1.02,0.87,1.73
			c0.39,1.06,0.5,2.01,0.52,2.69l1.04,7.12l2.11,4.64v3.22v1.01c0.26,0.5,0.32,0.92,0.32,1.24c-0.01,0.48-0.16,0.66-0.04,0.97
			c0.11,0.27,0.32,0.36,0.96,0.73c1.22,0.7,1.08,0.69,1.33,0.77c0.43,0.14,0.47,0.02,1.84,0.03c1,0.01,1.2,0.07,1.52-0.11
			c0.43-0.24,0.83-0.75,0.7-1.08c-0.13-0.35-0.7-0.16-1.5-0.61c-0.48-0.27-0.74-0.6-1.26-1.23c-0.27-0.34-0.62-0.82-0.94-1.45
			c0.11-1.28,0.23-2.58,0.36-3.88c0.18-1.83,0.37-3.64,0.57-5.42c-0.19-0.71-0.4-1.43-0.63-2.17c-0.32-1.05-0.66-2.05-1.01-3
			c-0.17-0.61-0.4-1.48-0.62-2.56c-0.2-0.99-0.31-1.51-0.34-2.14c-0.04-0.84,0.08-1.15,0.48-3.28c0.56-2.95,0.55-3.48,0.51-3.95
			c-0.09-0.95-0.35-1.83-0.48-2.25c-0.39-1.3-0.63-1.46-0.79-2.29c-0.24-1.24,0.2-1.45,0.17-2.84c-0.03-1.56-0.59-1.68-0.96-3.77
			c-0.29-1.61-0.97-4.9-1.35-5.34c0.12-0.34,0.32-0.9,0.66-1.55c0.32-0.61,0.6-1.02,0.7-1.17c0.93-1.41,0.77-2.84,1.78-5.8
			c0.57-1.68,0.87-1.91,1.1-2.05c0.6-0.36,1.43-0.33,2.87-0.29c0.29,0.01,0.21,0.02,0.99,0.06c0.92,0.04,1.84,0.05,2.76,0.11
			c0.57,0.04,1.48,0.1,2.61,0.17l5.99-1.52c0.66,0.01,1.32,0.02,1.98,0.03c0.22,0.06,0.5,0.17,0.8,0.35
			c0.41,0.25,0.69,0.54,0.86,0.75h3.74l1.83-1.97L147.74,63.66z"/>
		<path fill="#1E388C" d="M116.03,61.92c-0.01-0.32-0.02-0.64-0.03-0.96c0.27-0.18,0.48-0.33,0.64-0.46
			c-0.14,0.02-0.31,0.04-0.48,0.04c-0.5,0-0.94-0.13-0.94-0.17c0-0.03,0.25,0,0.94,0c0.3,0,0.51-0.01,0.66-0.01
			c0.24-0.21,0.3-0.32,0.27-0.39c-0.09-0.18-0.91,0.05-0.96-0.09c-0.04-0.14,0.76-0.46,0.72-0.59c-0.05-0.15-1.07,0.15-1.22-0.12
			c-0.1-0.2,0.34-0.46,0.35-0.92c0-0.35-0.26-0.64-0.46-0.81c0-1.24-0.01-2.47-0.01-3.71c-0.06,0-0.84,0.05-1.37,0.26
			c-0.68,0.27-1.08,1.65-1.03,3.31c-0.22-0.13-0.47-0.14-0.59-0.03c-0.15,0.14-0.07,0.44-0.02,0.61c0.03,0.11,0.08,0.2,0.11,0.26
			c0.09,0.31,0.12,0.57,0.13,0.74c0.02,0.25,0,0.41,0.11,0.5c0.09,0.06,0.18,0.04,0.41,0.05c0.22,0.01,0.39,0.03,0.5,0.05
			c-0.08,0.24-0.17,0.64-0.14,1.13c0.03,0.4,0.14,0.72,0.23,0.93c-0.06,0.29-0.2,0.73-0.51,1.2c-0.31,0.47-0.67,0.78-0.91,0.95
			c2.14,0.4,2.83,0.48,2.85,0.41c0.03-0.1-1.44-0.41-1.42-0.76c0.02-0.19,0.46-0.39,0.8-0.31c0.22,0.06,0.28,0.21,0.6,0.4
			c0.25,0.15,0.48,0.23,0.64,0.27c-0.78-0.9-0.89-1.18-0.83-1.24c0.09-0.1,0.42,0.25,0.93,0.22c0.58-0.04,1.02-0.54,1.38-0.95
			c0.25-0.29,0.42-0.55,0.52-0.74C117.29,61.29,116.66,61.6,116.03,61.92"/>
		<path fill="#1E388C" d="M118.27,57.43h-1.44c0.09,0.34,0.33,0.58,0.59,0.61c0.2,0.02,0.37-0.09,0.47-0.16
			C118.12,57.73,118.22,57.53,118.27,57.43"/>
		<path fill="#1E388C" d="M116.34,63.64c0.14-0.09,0.29-0.19,0.43-0.3c0.16-0.13,0.3-0.26,0.42-0.38c0.03-0.07,0.02-0.16-0.04-0.22
			c-0.06-0.06-0.15-0.07-0.22-0.03c-0.09,0.15-0.19,0.3-0.28,0.45C116.54,63.31,116.44,63.48,116.34,63.64"/>
		<path fill="#1E388C" d="M116.75,64.24c0.18-0.19,0.35-0.33,0.48-0.41c0.24-0.16,0.43-0.29,0.67-0.28c0.06,0,0.14,0.01,0.45,0.15
			c0.17,0.07,0.38,0.17,0.64,0.31c-0.12-0.01-0.3-0.03-0.51-0.06c-0.38-0.07-0.44-0.12-0.64-0.11c-0.15,0.01-0.3,0.07-0.6,0.19
			C117.03,64.11,116.86,64.19,116.75,64.24"/>
		<polygon fill="#1E388C" points="146.04,64.87 147.6,64.87 146.88,65.68 		"/>
		<path fill="#1E388C" d="M148.02,66.29c0.03,0.02,0.21-0.16,0.5-0.44c0.3-0.29,0.53-0.54,0.69-0.71c-0.07-0.04-0.13-0.09-0.2-0.13
			c-0.13,0.12-0.31,0.3-0.51,0.54C148.25,65.86,147.98,66.26,148.02,66.29"/>
		<path fill="#1E388C" d="M146.82,66.15c0.22,0.1,0.34,0.27,0.42,0.4c-0.63-0.01-1.12-0.01-1.45,0c-0.42,0.01-0.62,0.02-0.89-0.07
			c-0.22-0.07-0.33-0.16-0.8-0.49c-0.18-0.13-0.47-0.33-0.84-0.58h-3.1c-0.9,0.28-1.89,0.54-2.96,0.77
			c-0.95,0.21-1.86,0.36-2.71,0.48c-0.44,0.04-1.1,0.07-1.9,0.05c-0.75-0.02-0.93-0.07-1.9-0.12c-0.59-0.04-0.77-0.03-2.65-0.07
			c-0.5-0.01-1.27-0.02-2.23-0.04c-0.24,0.1-0.6,0.27-0.96,0.59c-0.28,0.24-0.47,0.5-0.59,0.69c-0.29,0.62-0.48,1.13-0.59,1.45
			c-0.56,1.64-0.51,2.5-1.09,4.14c-0.2,0.57-0.39,1.01-0.51,1.25c-0.24,0.6-0.62,1.44-1.23,2.38c-0.28,0.43-1.06,1.64-1.34,1.52
			c-0.08-0.04-0.17-0.22,0.25-2.2c0.23-1.06,0.45-1.93,0.62-2.53c0-0.12-0.03-0.62-0.42-1.05c-0.23-0.25-0.53-0.34-1.11-0.52
			c-0.53-0.16-0.8-0.19-0.8-0.28c0-0.09,0.25-0.16,0.67-0.27c1.3-0.35,1.4-0.37,1.57-0.43c0.68-0.24,1.11-0.69,1.37-0.98
			c0.7-0.75,0.48-1.1,1.23-2.17c0.28-0.4,0.68-0.95,1.35-1.39c0.66-0.43,1.31-0.67,1.96-0.66c2.33,0.01,4.67,0.02,7,0.04
			c0.44-0.32,1.23-0.81,2.34-1.05c1.43-0.31,2.6-0.02,3.14,0.15l5.31-0.12l1.27,1.04c0.33,0.03,0.59,0.03,0.78,0.03
			C146.44,66.1,146.61,66.06,146.82,66.15"/>
		<path fill="#1E388C" d="M127.21,124.24c-0.46-0.04-0.93-0.08-1.4-0.11c-0.07-0.13-0.17-0.31-0.34-0.48
			c-0.13-0.13-0.26-0.23-0.36-0.29c0.01-0.2,0.02-0.5-0.02-0.85c-0.03-0.35-0.04-0.54-0.14-0.73c-0.2-0.44-0.67-0.65-0.97-0.74
			c-0.02-0.45-0.04-0.91-0.06-1.36c0.09-0.06,0.37-0.27,0.46-0.66c0.14-0.61-0.33-1.06-0.35-1.09c-0.18-1.11-0.34-2.25-0.49-3.43
			c-0.19-1.46-0.34-2.87-0.46-4.25c-0.14-0.96-0.42-1.68-0.65-2.17c-0.29-0.59-0.7-1.2-0.47-1.5c0.16-0.21,0.52-0.1,0.68-0.38
			c0.07-0.13,0.03-0.23-0.01-0.63c-0.09-0.79,0-0.89-0.12-1.01c-0.29-0.27-0.9,0.21-1.19-0.07c-0.11-0.1-0.04-0.18-0.18-0.72
			c-0.11-0.43-0.18-0.45-0.15-0.6c0.04-0.23,0.23-0.26,0.63-0.65c0.26-0.25,0.38-0.38,0.43-0.52c0.13-0.41-0.29-0.84-0.62-1.28
			c-0.32-0.42-0.74-1.06-1.07-2c-0.13-0.8-0.24-1.71-0.27-2.7c-0.05-1.53,0.08-2.89,0.27-4.01c-0.09-0.14-0.22-0.32-0.42-0.5
			c-0.23-0.2-0.45-0.32-0.61-0.4c0.45-0.9,0.51-1.67,0.5-2.11c-0.01-1.59-0.81-2.71-1.14-3.15c-0.42-0.57-0.87-0.95-1.2-1.2
			c-0.21,0.15-0.59,0.36-1.1,0.46c-0.37,0.07-1.04,0.21-1.42-0.14c-0.26-0.24-0.16-0.52-0.33-1.05c-0.11-0.37-0.34-0.84-0.83-1.34
			c-0.03-0.56,0-1.01,0.03-1.31c0.07-0.72,0.19-1.11-0.05-1.42c-0.16-0.2-0.3-0.16-0.47-0.35c-0.29-0.33-0.22-0.87-0.1-1.29
			c0.14-0.08,0.55-0.34,0.71-0.83c0.19-0.6-0.07-1.3-0.65-1.75c-0.06-0.44-0.09-0.99-0.03-1.62c0.08-0.85,0.3-1.54,0.5-2.04
			c-0.54-0.1-1.15-0.28-1.77-0.62c-2.52-1.38-3.15-4.21-3.27-4.84c-1.03,0.06-2.13,0.09-3.29,0.07c-2.56-0.05-4.86-0.35-6.84-0.74
			c-0.71,0.14-1.65,0.25-2.73,0.19c-1.45-0.07-2.63-0.41-3.44-0.71c-0.65-0.02-1.41-0.01-2.25,0.1c-0.77,0.09-1.45,0.24-2.04,0.4
			c-0.32,0.1-0.73,0.27-1.16,0.53c-0.42,0.25-0.74,0.52-0.97,0.75h1.63c0.15-0.18,0.36-0.41,0.66-0.62c0.38-0.27,0.75-0.41,1-0.48
			c0.66-0.01,1.32-0.02,1.98-0.03l5.99,1.52c0.83-0.06,1.59-0.11,2.25-0.15c0.21-0.01,0.81-0.05,1.61-0.08
			c1.45-0.07,1.19-0.04,2.22-0.09c0.24-0.01,0.63-0.02,1.39-0.04c0.38-0.01,0.66-0.02,1.02,0.06c0.33,0.07,0.59,0.17,0.77,0.26
			c0.06,0.04,0.15,0.11,0.24,0.2c0.24,0.23,0.34,0.47,0.54,0.98c0.21,0.54,0.3,0.81,0.32,0.87c0.14,0.41,0.28,0.84,0.45,1.49
			c0.08,0.3,0.19,0.79,0.41,1.76c0.21,0.91,0.26,1.17,0.42,1.57c0.17,0.43,0.36,0.76,0.49,0.98c0.29,0.43,0.6,0.95,0.89,1.55
			c0.19,0.41,0.35,0.81,0.48,1.17c0.09,0.35,0.16,0.77,0.2,1.23c0.06,0.71,0.02,1.32-0.06,1.82c-0.41,0.65-0.39,0.98-0.28,1.16
			c0.22,0.38,0.94,0.33,0.96,0.56c0.01,0.11-0.15,0.15-0.47,0.44c-0.3,0.28-0.53,0.49-0.49,0.67c0.05,0.21,0.43,0.17,0.8,0.45
			c0.33,0.24,0.48,0.59,0.55,0.83c-0.3,0.51-0.39,0.97-0.42,1.24c-0.04,0.32-0.07,0.59,0.08,0.87c0.1,0.19,0.23,0.24,0.59,0.6
			c0.27,0.26,0.53,0.51,0.53,0.51c-0.23,0.44-0.47,0.89-0.7,1.34c0.01,0.36,0.06,0.83,0.22,1.36c0.12,0.38,0.26,0.69,0.4,0.95
			c-0.27,0.56-0.57,1.34-0.73,2.31c-0.15,0.85-0.15,1.6-0.11,2.17c-0.28,0.73-0.68,1.56-1.24,2.42c-0.23,0.36-0.47,0.68-0.7,0.97
			l0.79,1.39l-0.79,1.81c0,0,0.45,0.75,0.51,0.83c0.07,0.11,0.59,1.21,0.14,1.86c-0.29,0.42-0.68,0.25-0.95,0.7
			c-0.09,0.15-0.05,0.18-0.07,1.28c-0.01,0.71-0.03,1.01,0.19,1.23c0.11,0.11,0.19,0.11,0.29,0.24c0.17,0.24,0.12,0.54,0.1,0.75
			c-0.13,1.09,0.2,1.31-0.09,1.71c-0.09,0.13-0.3,0.35-0.82,0.46l-0.31,0.92l-0.26,3.39c-0.03,0.92-0.06,1.84-0.08,2.75
			c-0.08,0.03-0.27,0.13-0.43,0.33c-0.14,0.19-0.17,0.38-0.18,0.47l-0.05,2.42c-0.43,0.46-0.73,0.88-0.93,1.19
			c-0.36,0.56-0.49,0.93-0.93,1.29c-0.3,0.25-0.62,0.38-0.84,0.45c0.25,0,0.44,0,0.59,0.01c0.22,0.01,0.33,0.01,0.46,0.02
			c0.25,0.01,0.34,0.03,0.51,0.01c0.13-0.02,0.23-0.04,0.29-0.06c0.22-0.13,0.45-0.26,0.68-0.39c0.22-0.13,0.44-0.25,0.65-0.38
			c0.2-0.11,0.35-0.2,0.44-0.25c0.15-0.08,0.21-0.12,0.29-0.19c0.12-0.1,0.19-0.22,0.23-0.29c0.02-0.05,0.04-0.13,0.05-0.22
			c0.01-0.13-0.02-0.22-0.04-0.33c0,0-0.03-0.18-0.04-0.41c-0.01-0.24,0.04-0.42,0.09-0.63c0.04-0.16,0.11-0.37,0.23-0.61v-4.24
			l2.11-4.64l1.04-7.12c0.01-0.37,0.05-0.79,0.13-1.26c0.1-0.56,0.24-1.04,0.39-1.44c0.09-0.23,0.19-0.49,0.31-0.75
			c0.18-0.37,0.37-0.69,0.55-0.98v-4.7c0.11-0.07,0.26-0.18,0.39-0.34c0.12-0.14,0.21-0.27,0.26-0.38c0.05-0.09,0.09-0.19,0.13-0.32
			c0.06-0.19,0.08-0.36,0.08-0.49l0.21-2.36l0.35-1.49c0.07-0.06,0.22-0.18,0.45-0.22c0.42-0.08,0.74,0.15,0.79,0.19
			c0.2,0.38,0.44,0.92,0.6,1.6c0.19,0.81,0.11,1.19,0.36,1.83c0.24,0.62,0.59,1.1,0.94,1.47c0.03,0.33,0.07,0.69,0.14,1.07
			c0.09,0.46,0.19,0.87,0.31,1.24c-0.16,0.12-0.41,0.34-0.54,0.7c-0.02,0.05-0.06,0.19-0.07,0.63c-0.01,0.48-0.01,0.71,0.04,0.97
			c0.1,0.43,0.27,0.51,0.58,1.11c0.11,0.22,0.27,0.56,0.41,1.02c0.33,1.37,0.63,2.83,0.89,4.38c0.18,1.07,0.32,2.1,0.43,3.1
			c-0.06,0.17-0.14,0.42-0.16,0.74c-0.02,0.4,0.08,0.72,0.16,0.9c0.76,1.73,1.52,3.45,2.29,5.17l0.11,3.78
			c-0.03,0.16-0.06,0.41-0.02,0.7c0.04,0.28,0.12,0.51,0.19,0.67v1.25l1.46,1.36c0.46-0.03,0.82-0.03,1.08-0.01
			c0.45,0.02,0.78,0.08,1.23-0.04c0.1-0.03,0.49-0.14,0.48-0.27C127.69,124.33,127.25,124.25,127.21,124.24"/>
		<polygon fill="#1E388C" points="84.68,65.65 85.44,66.35 86.37,65.65 		"/>
		<path fill="#1E388C" d="M83.11,65.04c0,0,0.29,1.11,0.34,1.09c0.06-0.02,0.34-0.68,0.34-0.68c0.01-0.06,0.01-0.22-0.08-0.38
			c-0.05-0.08-0.11-0.14-0.16-0.17c-0.04-0.01-0.1-0.03-0.18-0.02C83.21,64.9,83.12,65.01,83.11,65.04"/>
		<path fill="#1E388C" d="M83.86,66.24c0.05,0.1,0.18,0.32,0.45,0.46c0.46,0.25,0.93,0.05,0.99,0.02
			C84.82,66.57,84.34,66.41,83.86,66.24"/>
		<path fill="#FFFFFF" d="M113.66,57.43h1.44c-0.1,0.34-0.33,0.58-0.59,0.61c-0.2,0.02-0.37-0.09-0.47-0.16
			C113.82,57.73,113.71,57.53,113.66,57.43"/>
	</g>
</g>
</svg>
